<?xml version="1.0" encoding="UTF-8" standalone="no"?>
<!-- Created with Inkscape (http://www.inkscape.org/) -->

<svg
   version="1.1"
   id="svg2"
   width="6122.7598"
   height="4081.8401"
   viewBox="0 0 6122.7598 4081.8401"
   sodipodi:docname="vecteezy_surface-of-the-water-background-calm-relaxing-water-surface_14445404.eps"
   xmlns:inkscape="http://www.inkscape.org/namespaces/inkscape"
   xmlns:sodipodi="http://sodipodi.sourceforge.net/DTD/sodipodi-0.dtd"
   xmlns="http://www.w3.org/2000/svg"
   xmlns:svg="http://www.w3.org/2000/svg">
  <defs
     id="defs6" />
  <sodipodi:namedview
     id="namedview4"
     pagecolor="#ffffff"
     bordercolor="#000000"
     borderopacity="0.25"
     inkscape:showpageshadow="2"
     inkscape:pageopacity="0.0"
     inkscape:pagecheckerboard="0"
     inkscape:deskcolor="#d1d1d1" />
  <g
     id="g8"
     inkscape:groupmode="layer"
     inkscape:label="ink_ext_XXXXXX"
     transform="matrix(1.3333333,0,0,-1.3333333,0,4081.84)">
    <g
       id="g10"
       transform="scale(0.1)">
      <path
         d="M 45920.7,0 H 0 V 30613.8 H 45920.7 V 0"
         style="fill:#52b7ea;fill-opacity:1;fill-rule:nonzero;stroke:none"
         id="path12" />
      <path
         d="m 5584.3,5070.6 c -33.09,1080.2 2141.52,1522.9 2354.52,1482.4 0,0 963.6,417.3 1754.51,-52.1 C 10484.1,6031.5 9662.12,5982.8 9240.9,4759.4 8819.57,3536 9873.67,4073.7 9746.41,3235.3 9619.26,2397 8799.36,2277.9 7791.35,2540.8 c -1008.13,262.9 -1280.99,336.8 -1961.4,656.9 -680.3,319.9 -212.55,792.6 -245.65,1872.9 z m 5341.8,1189.1 c 356.2,-7.9 158.3,-379.6 197.9,-719.7 39.5,-340.1 562,-466.5 601.7,-767.1 39.5,-300.5 -894.7,94.9 -1353.8,0 -459.13,-94.9 -550.42,-597.6 -609.61,-608.9 -989.58,-189.9 47.53,893.6 443.31,1384 395.9,490.3 364.3,719.6 720.5,711.7 z m 683.4,176.7 c 322,216.1 775.8,100.1 1841.9,369 1066.1,268.9 1419.7,363.8 1013.4,-81.4 -406.5,-445.3 -496.1,-899.3 -364.2,-1410.7 132,-511.4 2185,-1444.7 2058.3,-1845.4 -126.6,-400.7 -1467.3,168.8 -1498.9,200.4 0,0 -2770.7,1560.7 -3108.6,1866.4 -337.7,305.8 -263.8,685.5 58.1,901.7 z m 4624.7,855.4 c 1021.2,1008.4 1258.6,949 2968.6,1043.9 1710,94.9 1329.9,-1067.6 1959.4,-984.6 629.3,83.1 700.6,-130.5 1056.9,-628.7 356.2,-498.3 961.8,-71.3 878.6,-640.6 -83.1,-569.5 -249.3,-1269.4 -604.7,-1388 -355.2,-118.7 -1342.7,545.7 -2649,427 -896,-81.3 -995.5,-109.4 -1171,-415.9 -141.6,-247.3 -152,-545.4 -40.3,-807.4 52.5,-123.3 72.1,-325.5 11.9,-655.2 -178,-977 -1234.9,-790.6 -985.5,-280.7 249.4,509.8 -866.9,1032.3 -2576.9,2088.1 -1710,1055.8 130.7,1233.7 1152,2242.1 z m -1273.4,1981.1 c 5.4,332.2 549,189.8 839.3,400.7 290.1,210.9 738.8,627.4 860.2,553.6 121.3,-73.7 184.8,-627.3 248.1,-827.7 63.3,-200.4 416.8,-500.9 353.5,-843.6 -63.3,-342.7 -253.3,-295.3 -664.9,-385 -411.7,-89.6 -833.8,-1024.1 -1034.5,-1043.9 -749.4,-73.8 -110.8,785.7 -68.6,1059.8 42.2,274.1 -538.3,754 -533.1,1086.1 z m -139.9,47.3 c 8,-125.8 -100.6,-228 -225.9,-212 -544.2,69.2 -1829,243.5 -2093.5,375.6 -337.8,168.8 -332.5,369.1 -95.1,395.4 237.6,26.4 2670.6,210.9 2739.2,68.6 68.5,-142.4 -311.4,-411.3 -327.2,-432.4 -7.1,-9.5 -3.6,-99.4 2.5,-195.2 z m -4704.9,933.1 c -2338.32,626.3 -3374.98,1011.6 -3350.88,1734 24.1,722.6 241.09,1324.6 1012.56,746.6 771.37,-578 602.68,-1493.1 2700.02,-1420.9 2097.2,72.2 4170.4,731.7 5062.4,522.3 891.9,-209.2 1229.4,-835.4 217,-1004 0,0 -3302.7,-1204.2 -5641.1,-578 z m 105.5,-640.4 c -130.6,-221.4 -2145.42,126.6 -2145.42,126.6 0,0 -847.1,-126.6 -1599.14,265 -752.04,391.5 -1907.87,1217.9 -2236.36,1514.5 -328.6,296.6 -39.64,363.8 1092.42,577.4 1132.06,213.4 878.75,-443 1223.12,-846.3 344.37,-403.4 1551.61,-644.6 2010.81,-719.7 459.2,-75.2 1785.17,-696 1654.57,-917.5 z m -4377.89,4523.9 c -158.36,869.9 -142.48,767 395.9,838.3 538.27,71.2 1535.73,616.8 2097.88,545.7 562.03,-71.2 1084.53,656.4 1511.96,664.3 427.55,7.9 562.15,-1162.6 870.85,-1376.1 308.7,-213.6 1876.2,134.4 1884.1,-158.2 8,-292.6 -2351.2,-822.5 -2746.95,-1170.4 -258.08,-226.9 -650.88,-608.6 -892.85,-846.6 -116.83,-114.9 -304.29,-114.9 -421.23,-0.2 -341.7,335.4 -1028.56,928 -1433,720.2 -554.15,-284.7 -1504.09,-972.8 -1680.99,-1020.3 -176.91,-47.4 -670.2,-7.8 -868.09,87 -198.01,95 -672.98,617 -680.86,719.7 -7.89,102.9 2121.64,126.6 1963.28,996.6 z m -3651.6,518.1 c -710.06,236.8 -1242.67,442.1 -1541.947,707.5 -299.176,265.3 72.179,432.3 -57.86,1284.4 -63.305,415.2 -72.523,821.2 -65.414,1128.6 6.774,286.9 311.281,458.2 619.671,349.4 452.87,-160 1028.78,-400.3 1189.48,-633.6 275.95,-400.7 582.35,-1155.6 1505.97,-1570.1 923.5,-414.5 1490.09,-1076.4 1607.14,-1275.5 117.15,-199.1 285.62,-841.2 -987.92,-1163.5 -1273.54,-322.1 -1558.94,935.8 -2269.12,1172.8 z m -732.28,5143.5 c 320.73,478.1 772.7,1038.1 1144.5,992.2 371.8,-46 976.26,-1070.6 2206.05,-1526 843.65,-312.4 945.6,-329.9 1236.22,-128.8 234.43,162.1 372.36,426.6 384.68,711.1 5.89,133.8 75.3,324.8 271.86,596.4 582.24,804.9 1455.44,181.7 1010.46,-171 -444.99,-352.7 336.82,-1304.8 1424.34,-2993.8 1087.56,-1688.9 -650.09,-1057 -2006.69,-1527.2 -1356.5,-470.2 -1545.29,-314.4 -3129.22,336.3 -1583.93,650.5 -739.5,1536 -1343.17,1732.1 -603.79,196 -575.91,419.4 -682.41,1022.3 -106.5,603 -837.22,478.4 -516.62,956.4 z m 6648,583.6 c 55.42,479.7 -174.13,1386.6 593.79,1291.7 767.93,-94.9 1076.65,-395.4 1800.58,-680.1 723.9,-284.8 202.2,-529.9 384.4,-909.5 182.1,-379.6 79.1,-348 -475,-783 -333,-261.4 -385.9,-922.5 -375,-1408.6 5.9,-265.3 -288.98,-425.9 -509.97,-278.8 -1245.22,828.6 -1467.66,2344.7 -1418.8,2768.3 z m 1671.33,2888.9 c 773.84,258.8 1203.64,-299.4 2643.84,-535.6 1440.1,-236.2 795.3,-987.8 2493.4,-408.1 1698,579.8 1719.5,880.5 3030.7,1374.4 1311.2,493.8 2708.3,837.4 3568.1,429.4 73.9,-35 148.6,-81.9 223.3,-138.4 1145.6,-864.8 821.1,-2664.4 -548.3,-3095.7 -1518.3,-478.2 -3490.6,-889.3 -4704.7,-330.4 -2192.5,1009.2 -4126.9,901.8 -4986.8,665.6 -859.8,-236.2 -1805.5,644.3 -1912.99,1116.7 -107.5,472.3 -580.36,663.3 193.45,922.1 z m 3039.04,2724.9 c 1192.8,167.5 1673,-315 2005.6,-541.8 332.5,-226.7 601.6,-31.6 960.5,-263.6 358.9,-232 960.6,-954.3 1150.5,-1355 190,-400.6 -2761.8,-1320.5 -2865.7,-1323.3 -1145.3,-31.7 -3805.3,1434 -3826.4,1799.5 -21.1,365.6 1382.8,1516.8 2575.5,1684.2 z m 723.1,945 c 242.7,-89.5 335.1,-300.4 445.9,-600.9 110.9,-300.6 -778.4,-168.8 -778.4,-168.8 0,0 -332.5,116 -377.4,345.4 -44.9,229.3 467.1,514 709.9,424.3 z m 2649.3,2467.6 c 1290.4,-229.3 -158.2,-1336.5 -1147.8,-1850.6 -272.2,-141.4 -466.4,-360.5 -605.1,-604 -132.5,-232.5 -486.9,-156.4 -515.9,109.6 -83.1,763.5 -173.9,1601.5 -214.7,1997 -85,822.5 1193.2,577.3 2483.5,348 z m 823.4,-711.8 c 121.3,226.8 712.5,706.6 1066,891.1 353.6,184.5 1119,200.3 1546.4,-205.7 427.6,-405.9 -1836.6,-2741.6 -1836.6,-2741.6 0,0 -52.8,-131.9 -179.4,-295.3 -126.7,-163.4 -469.7,427.1 -607,838.4 -137.1,411.2 -923.6,321.6 -934.2,579.8 -10.5,258.4 823.4,706.6 944.8,933.3 z m 1483,1658.2 c 59,40.5 521.2,-310.2 794.4,-525.3 54.9,-43.1 16.4,-130.9 -52.4,-119.9 -265.4,41.9 -652.2,102.3 -710.3,107.4 -89.7,8 -126.7,108 -134.6,179.3 -7.9,71.2 18.4,300.5 102.9,358.5 z m 140.5,-5483.9 c 0,0 -224.6,-421.6 -857.8,-345.8 -633.3,75.7 -1113.7,84 -1372.8,554.2 -259,470.5 -1236.3,520.8 -1456.3,766.8 -220.1,245.9 -578.1,261.3 -329.8,766 248.3,504.7 199.5,967.3 834.8,843.2 635.1,-124.3 973.6,39.3 1341.1,-515.5 367.5,-554.7 367.3,-918.9 884,-1083.2 516.7,-164.2 1363.8,-249.8 956.8,-985.7 z m 4248.2,-2824.6 c 536,436.7 503.1,263.6 1204.1,82.4 701,-181.2 1030.8,296.6 1072.1,328.3 41.2,31.9 420.6,297.8 1212.3,1039.3 791.6,741.5 461.8,659.1 791.6,939.3 330,280 618.6,362.4 857.7,90.5 239.2,-271.8 165,-510.8 0,-1219.3 -164.9,-708.5 -239.1,-403.7 -709.2,-626.1 -470.1,-222.4 -931.9,-964 -865.8,-1680.8 57.7,-627.3 330.2,-1052.7 397.3,-1149.1 14.5,-20.8 22.1,-46.9 16.5,-71.8 -71,-318.6 -1648.9,-541.7 -2393.1,-690.4 -783.5,-156.5 -808.3,461.3 -1162.8,1013.4 -354.6,551.9 -560.9,675.5 -948.4,1046.3 -387.7,370.7 -8.4,461.4 527.7,898 z m 528.8,1082.6 c 182.2,138.4 1195.4,494.4 1337.9,561.5 142.6,67.2 352.3,549.7 601.6,960.9 249.5,411.3 1045,1059.8 1563.6,1131 518.5,71.1 91,-739.4 99,-826.5 7.9,-87 -154.4,-197.7 -570,-830.4 -150.3,-228.7 -321.2,-383.6 -478.8,-488.4 -296.6,-197.4 -579,-415.7 -836.9,-661.4 -116.1,-110.6 -274.3,-236 -489.4,-368.7 -724.2,-446.8 -736.1,-67.2 -969.7,-43.5 -233.5,23.8 -439.4,427.2 -257.3,565.5 z m 5775.1,3833.1 c 894.6,424.5 498.8,-337.4 475,-986 -23.8,-648.5 989.6,-964.9 989.6,-964.9 0,0 -1179.6,-173.9 -1504.2,-318.3 -324.5,-144.3 -641.2,-100.8 -973.7,0 -332.5,100.9 -585.8,310.5 -696.6,816.6 -110.9,506.2 815.3,1028.2 1709.9,1452.6 z m 2660,548.3 c 1179.6,102.8 696.7,648.6 1670.4,1305 973.7,656.3 878.7,1478.8 1630.8,601 752,-877.9 498.7,-2435.9 79.2,-2910.4 -419.6,-474.6 -1219.2,-427.1 -1480.5,-553.5 -261.2,-126.6 -1488.3,-743.5 -1488.3,-743.5 0,0 -1797,-71.2 -2082,537.8 -285,608.9 490.9,1660.8 1670.4,1763.6 z M 27432,22266.9 c 174.3,134.4 570.1,-31.6 490.9,-651.2 -79.2,-619.5 -612,-956.8 -612,-956.8 -493.2,-361.1 -53,1473.5 121.1,1608 z m 7901.2,2839.1 c -766.3,-1093.6 766.1,-911.3 1468,-1603.8 702,-692.6 -556,-1075.2 -920.8,-2278.1 -364.9,-1202.8 -2024.9,-1057 -4013.4,-1240.9 -1988.4,-184 -2298.5,-1930.1 -2298.5,-1930.1 0,0 -912.2,-510.3 -1952,-382.7 -1039.8,127.6 -602,1458 0,2168.7 602,710.8 1295.2,1385 1368.2,3371.5 72.9,1986.5 2134.4,1239.3 4068.1,1986.5 1933.8,747.2 3046.5,1002.3 2280.4,-91.1 z M 38436,20621.8 c 792.2,-89.1 1292.6,-324.9 1600.5,-549.8 184.4,-134.7 79.1,-426.4 -148.9,-412.1 -460,28.8 -1059.9,-16.1 -1324.8,-390.4 -459.2,-648.6 -387.9,-1233.8 -720.4,-1866.5 -332.5,-632.7 -166.3,-680.2 -649.2,-648.4 -482.9,31.6 -1052.9,-79.1 -1907.9,-197.8 -855,-118.7 -760,267.2 -1464.6,-60.2 -704.6,-327.4 -918.3,-920.5 -1219.1,-659.5 -300.8,261 -910.4,213.5 -411.7,767.1 498.8,553.6 593.7,885.8 1306.2,941.1 712.5,55.4 -657.1,593.2 696.7,814.7 1353.7,221.4 1345.8,553.6 1931.6,1217.9 585.9,664.3 625.4,1233.8 2311.6,1043.9 z m 1646.7,783 c 1266.7,158.2 1591.3,-427 1725.9,-489.5 134.5,-62.5 300.8,-72 308.7,-256.4 7.9,-184.5 -205.9,-76.5 -237.5,-45.3 0,0 -562.1,16.1 -870.8,-165.7 -308.8,-181.9 -229.7,-482.5 -237.5,-742.8 -7.9,-260.3 -419.6,0 -419.6,0 0,0 87.1,220.8 -221.1,584.6 -308.2,363.8 -1481,419.1 -1694.8,440.7 -213.6,21.6 -300.8,97.1 -379.9,262.4 -79.1,165.3 760,253.9 2026.6,412 z m 3113.9,-745.9 c 358.8,-203.1 469.6,-34.4 828.6,-224.2 358.9,-189.8 -79.2,-415.3 -52.8,-729.6 26.3,-314.4 533.1,-694 52.8,-799.4 0,0 -543.6,42.2 -654.5,274.1 -110.8,232 0,300.6 0,395.4 0,95 110.9,321.7 -411.6,675 -522.5,353.2 -121.4,611.7 237.5,408.7 z M 44669,17751 c -226.9,-26.4 -126.7,216.1 -464.4,26.3 -212.1,-119.1 -359.7,-433.8 -440.2,-651.3 -31,-84.1 -146,-93.6 -190.3,-15.9 -149.7,263.1 -420.6,739.3 -688.9,1215.6 -401.1,711.8 -459.2,548.4 -1008.1,790.9 -548.8,242.5 -1008,326.8 -855,616.8 153.1,290 -728.3,717 522.5,585.3 1250.9,-131.8 1747,-289.9 1546.4,-632.7 -200.6,-342.7 -369.5,-569.4 116.2,-754 485.5,-184.5 701.8,-52.7 960.4,-448.1 258.7,-395.5 728.4,-706.6 501.4,-732.9 z m 337.9,1260.1 c 659.6,221.4 934,-121.3 907.7,-168.7 -26.4,-47.4 -100.3,-174 -42.2,-369 58,-195.2 -200.6,-548.4 -200.6,-548.4 0,0 -321.9,-131.8 -517.2,-174 -195.3,-42.1 -322,94.9 -350.7,142.4 -28.9,47.4 -45.1,274.1 -330.1,553.6 -285.1,279.4 -126.7,342.7 533.1,564.1 z m -6911.2,-2949.2 c 213.7,-355.8 -46.6,-768.9 1888.1,-993.5 843.1,-97.9 284.9,-797.8 284.9,-797.8 0,0 -973.7,-711.8 -1983,-616.8 -1009.4,94.8 -831.5,-535.1 -1805.1,-8.8 -411,222.2 178.2,495.1 107,827.3 -71.3,332.1 -783.8,118.6 -938.2,723.7 -154.3,604.9 -736.1,889.6 498.8,1174.4 1235,284.6 1733.7,47.3 1947.5,-308.5 z m 5383.2,-3293.3 c 633.3,-245.2 -63.3,-221.5 -190,-490.4 -71.9,-152.6 -72.3,-493.4 -65.1,-773.2 5.5,-212.3 -193.3,-371.4 -399.6,-319.4 -511.8,129 -1404.4,342.5 -2021.1,428.3 -910.4,126.6 -1599.1,-126.6 -2343.3,150.2 -744.1,276.9 -110.8,545.7 -823.3,680.2 -712.5,134.4 -1377.5,55.3 -1456.7,387.5 -79.1,332.2 1250.9,608.9 2367.1,442.9 1116.3,-166.1 1900,411.2 2477.9,719.6 577.9,308.6 1820.8,-980.6 2454.1,-1225.7 z m 139.9,-1882.3 c 168.8,-126.6 132,-326.9 591,-311.1 459.2,15.8 913.1,160.1 1108.5,114.3 195.2,-45.8 269,-182.8 47.4,-219.8 0,0 -723.1,-263.6 -1234.9,-126.4 -512,137 -739,221.4 -733.6,379.5 5.2,158.2 52.7,290 221.6,163.5 z m -6048.3,927.9 c -42.2,-158.2 -395.8,-469.2 -485.5,-487.1 0,0 -290.3,-98.1 -448.7,97 -158.2,195.1 5.4,622.1 195.4,711.8 190,89.6 263.8,131.8 538.2,147.6 274.6,15.8 242.8,-311.1 200.6,-469.3 z m 2496.3,-5159.1 c 166.3,-189.8 379.4,-295.1 23.1,-888.2 -356.2,-593.2 -1235,-71.2 -2446.2,403.3 -1211.3,474.6 -2185,47.5 -4227.4,-308.4 -1148.9,-200.1 -1636.6,-610.5 -1843.4,-931.3 -173.9,-269.9 -493.3,-409.3 -808,-344.6 -830.5,170.6 -2236.2,614.8 -2929.8,1726.8 -1021.3,1637 47.5,1708.2 1329.9,1826.8 1282.5,118.6 831.3,47.5 4037.5,1779.4 3206.2,1732 3491.1,1447.4 3823.7,213.6 332.5,-1233.8 2874.4,-3287.5 3040.6,-3477.4 z m 510.6,-1482.8 c 63.5,-126.6 31.8,-208 209.9,-361 178.2,-153.1 225.6,-331 225.6,-331 -11.9,0 -312.7,-149.1 -490.9,-136 -178.1,13.4 -83,60.9 -277,84.6 -193.9,23.7 -304.8,-55.4 -372.1,19.7 -67.3,75.1 -114.8,142.4 -35.6,249.1 79.2,106.8 102.9,126.6 190,174.1 87.1,47.3 -213.8,450.7 134.6,403.2 348.4,-47.3 352.3,23.8 415.5,-102.7 z M 41001,3887.1 c -71.2,-209.6 -459.1,-75.2 -475,-71.2 0,0 -233.5,-43.4 -352.2,-46.1 -118.7,-2.6 -308.7,109.4 -356.3,315.1 -47.5,205.5 51.4,213.4 332.5,253.5 281.1,40 205.8,-134.9 391.9,-67.7 186,67.2 217.7,87 459.1,47.5 241.5,-39.6 71.3,-221.5 0,-431.1 z M 38244.1,5714 c 304.8,-71.2 558.1,-227.4 558.1,-227.4 35.6,-108.7 -197.9,-164.1 -379.9,-98.8 -182.2,65.2 -154.5,110.7 -300.9,138.4 -146.4,27.6 -104.9,61.2 -172.2,116.6 -67.3,55.4 -9.9,142.3 294.9,71.2 z m 1390.2,-664.3 c -63.2,-58 -132.2,-147.6 -95.2,-284.8 37,-137 -42.2,-421.8 -496,-353.2 -453.9,68.6 -374.9,258.4 -575.4,399.6 -200.5,141.1 -1314.1,386 -1314.1,386 0,0 -538.4,669.6 42.2,601 580.6,-68.5 332.5,-137 971.2,-469.1 638.5,-332.3 517.1,5.2 1076.6,47.3 559.4,42.2 453.9,-268.9 390.7,-326.8 z m -11798.5,-51.5 c -182.1,-181.8 -613.5,122.6 -641.2,166.1 0,0 -229.6,98.9 -277.1,312.4 -47.5,213.6 95,79.1 376.1,205.7 280.9,126.5 15.7,221.5 182,336.1 166.2,114.7 320.6,-7.9 439.4,-225.4 118.7,-217.5 150.4,-276.8 205.8,-446.8 55.4,-170.1 -103,-166.1 -285,-348.1 z m -1007.3,563.6 c 0,0 -122.7,19.8 -110.8,306.4 11.7,286.7 148.3,140.4 298.8,223.5 150.4,83 201.8,336 397.8,316.3 195.9,-19.8 130.6,-164.1 130.6,-245.2 0,-81 -132.6,-96.9 -186,-174 -53.5,-77.1 29.6,-146.3 -19.8,-217.4 -49.5,-71.2 -166.3,-41.6 -332.5,-45.5 -166.3,-4 -172.2,-154.2 -178.1,-164.1 z m -508.7,741.4 c -376.1,-75.2 -387.9,221.5 -558.1,486.4 -170.2,264.9 -269.2,324.3 -455.2,502.2 -186.1,178 -4,221.5 253.3,431 257.3,209.6 241.5,126.5 577.9,39.5 336.4,-86.9 494.8,142.4 514.5,157.7 19.9,15.3 201.9,142.9 582,498.8 380,355.9 221.6,316.3 380,450.7 158.3,134.5 296.8,174.1 411.6,43.5 114.8,-130.4 79.2,-245 0,-585.2 -79.1,-340 -114.8,-193.7 -340.4,-300.5 -225.6,-106.8 -447.2,-462.7 -415.6,-806.7 27.6,-301.1 158.5,-505.3 190.7,-551.6 7,-10 10.6,-22.5 8,-34.4 -34.1,-153 -791.5,-260 -1148.7,-331.4 z m -3252.4,4050.6 c 395.9,221.4 1773.4,400.6 1863,268.8 32.4,-47.6 33.2,-101.6 20.9,-151.3 -22.6,-91.3 -90.9,-164.4 -178.7,-197.8 -261.9,-99.7 -990.5,-382.2 -1190.9,-515.6 -245.7,-163.4 -598.7,-432.3 -889,-664.3 -290.3,-231.9 -358.9,5.4 -358.9,416.6 0,411.3 337.8,622.2 733.6,843.6 z m -5235.4,-522 c 506.6,311.1 675.5,342.7 1018.5,1228.5 343.1,885.7 960.5,1312.9 976.4,1108.4 15.9,-204.5 253.3,-481 665,-792.1 411.6,-311.1 68.6,-326.8 -343.1,-495.6 -411.6,-168.7 -179.4,-1001.8 -110.8,-1634.5 23.3,-214.7 100.6,-387.8 192.7,-523 99.5,-146.1 -15.2,-341.7 -191.2,-323 -389.3,41.2 -870.4,98.8 -1136.2,155.4 -496.1,105.4 -849.7,-73.9 -1287.8,147.6 -438,221.4 -290.3,817.3 216.5,1128.3 z m 8689.6,8638.9 c -134.6,-703.9 67.3,-739.4 -158.3,-917.4 -225.6,-177.9 -522.5,-553.6 -613.5,-703.9 -91,-150.2 118.8,-723.7 118.8,-723.7 217.6,-537.7 -483,-177.9 -787.7,-166 -304.9,11.8 -43.6,419.2 -11.9,775 31.6,355.9 -459.2,1700.4 -467.1,1771.6 -7.9,71.1 -162.2,142.4 -395.8,276.8 -233.5,134.5 95,118.6 724.3,151.7 629.4,32.9 1436.9,394 1773.4,429.5 336.3,35.7 -47.6,-189.7 -182.2,-893.6 z m -3248.3,-4489.4 c 73.8,-348.1 390.5,-163.6 638.5,-432.4 248.1,-268.9 -300.8,-332.1 -464.4,-738.2 -163.6,-405.9 37,-806.6 -221.7,-1038.6 -179.1,-160.8 -1011.6,-331.5 -1541.5,-430.1 -378.9,-70.5 -772.1,-16.3 -1113,163.3 -94.8,49.9 -178.3,105.9 -232.3,166.6 -216.5,242.5 -327.3,590.5 -47.6,1133.6 279.8,543.1 1382.8,806.7 1852.5,1105.6 469.7,299 997.5,486.6 1166.3,481.4 169,-5.3 -110.8,-63.3 -36.8,-411.2 z m 2660.3,582.5 c 0,0 -1895.1,-756.6 -2254,-640.6 -358.9,116 -142.5,479.9 559.5,833.1 702,353.2 469.6,416.5 622.8,606.3 153,189.8 506.6,627.5 849.6,353.2 343.1,-274.1 212.5,-891 222.1,-1152 z m 1823,798.8 c 245.5,-403.4 712.6,-221.5 728.3,-303.2 15.9,-81.8 -150.3,-448.1 -308.7,-764.5 -87.7,-175.3 -156,-395.7 -199.4,-557.4 -25.7,-95.2 -145.1,-126.6 -214.3,-56.3 -236.2,239.8 -675.4,670 -916.3,806.5 -340.3,192.8 -364.1,265.9 -482.9,571.7 -118.7,305.7 -205.8,532.5 -372,1283.9 -166.3,751.3 55.4,616.8 308.7,885.7 253.3,269 435.4,-142.3 482.9,-569.4 47.5,-427 324.5,-498.2 475,-601.1 150.4,-102.7 253.3,-292.5 498.7,-695.9 z m 4556.1,-348 c 0,0 -1856.5,272.9 -2454.2,209.6 -597.7,-63.3 -498.7,71.1 -847.1,257 -348.3,185.9 201.9,276.8 779.8,545.7 577.9,268.9 878.8,181.9 1211.3,67.2 332.5,-114.6 482.8,83.1 653.1,110.7 170.2,27.8 142.4,47.5 241.4,-229.3 98.9,-276.8 150.5,-257 197.9,-276.8 47.5,-19.7 277.1,-27.7 356.2,-300.5 79.2,-272.9 -138.4,-383.6 -138.4,-383.6 z m 1058.5,-954.9 c 126.7,-106.3 85.4,-310.2 -72.6,-359.4 -244.8,-76.3 -569.2,-242.9 -910.8,-599.6 -696.6,-727.5 -1377.4,-1447.3 -1709.9,-1233.8 -332.5,213.6 54.8,814.7 -313,996.5 -367.9,182 -1286.2,395.5 -1697.8,237.3 -411.7,-158.2 -293,798.8 0,1162.6 292.9,363.7 -356.3,735.5 728.2,790.9 1084.7,55.3 3261.7,-348.1 3285.5,-395.4 14.2,-28.5 391.6,-348.4 690.4,-599.1 z m 2208.7,-342.2 c -397.5,-189.7 -1086.3,355.9 -1482.1,442.9 -395.8,87.1 -554.1,182 -862.9,719.8 -308.8,537.7 411.7,877.8 957.9,1138.8 546.2,261 831.3,-79.1 1029.2,-537.8 197.9,-458.7 253.3,-624.7 435.4,-822.4 182,-197.8 451.2,-134.5 641.2,-348.1 190,-213.5 -676.7,-573.1 -718.7,-593.2 z m 128.9,-2101.6 c 120.7,152.2 203.9,33.6 314.8,29.6 110.8,-3.9 108.8,-73.1 131.4,-158.2 22.7,-85 78.3,-160.2 78.3,-160.2 0,0 -25.7,-65.1 -56.8,-53.3 -31.1,11.9 -232.1,112.8 -311.3,110.8 -79.2,-2 -124.7,-2 -184.1,27.6 -59.3,29.7 -93,51.5 27.7,203.7 z m 82.2,474.5 c 66.4,42.8 94.4,72.2 189.4,129.3 94.8,57.3 80.6,98.1 129.7,2.9 49,-95.1 -53.2,-169 -41.3,-256.8 4.4,-33.3 16.2,-66.5 28.9,-95 17,-37.6 -11.4,-79.8 -52.6,-77.4 -47.7,2.6 -101.3,7.4 -132.5,15.7 -65.5,17.7 -109.1,-2.5 -148.9,-2.8 -39.8,-0.3 -40.3,2.4 -152.8,144.4 -112.6,141.9 113.8,96.9 180.1,139.7 z m -9071.5,-1631.2 c 522.5,35.6 582,-154.2 985.7,-605 403.7,-450.8 -902.5,-1305 -902.5,-1411.7 0,0 -522.5,-616.9 -736.3,-510.1 -213.7,106.7 -510.6,474.5 -510.6,794.8 0,320.3 -368.1,450.9 -368.1,830.4 0,379.6 1009.3,866 1531.8,901.6 z m 571.6,906.2 c -1.4,-125.2 23.6,-329.5 48,-488.4 19.5,-126.9 -76.2,-242.1 -204.6,-246.2 -117.9,-3.7 -267.6,-4 -426.5,7.7 -361.6,26.4 -699.3,-303.2 -1126.9,-187.2 -427.4,116 -113.3,179.3 95.1,361.1 208.5,182 369.5,224.1 1055.6,682.9 686,458.6 562,97.5 559.3,-129.9 z m 429.9,1794.7 c 3.8,-102.5 -67.2,-233.7 -142,-342.4 -70.1,-101.7 -224.5,-88.9 -277.4,22.7 -124.5,262.5 -314.6,670.2 -356.4,798.2 -63.3,193.7 -146.5,565.4 348.4,272.5 494.7,-292.8 419.5,-537.6 427.4,-751 z m 146.5,216.1 c 18.4,100.2 236.2,180.6 340.3,109.4 104.3,-71.1 18.6,-196.4 -17.1,-287.4 -35.6,-90.9 -170.2,-39.5 -176.7,-39.5 0,0 -164.9,117.3 -146.5,217.5 z m 63.3,-520.7 c 269.2,253.1 316.7,134.5 506.7,63.3 190,-71.1 348.3,-411.3 -134.6,-601 -483,-189.8 -799.6,-609.1 -875.3,-640.7 0,0 -193.4,379.7 0,609 193.5,229.4 234.1,316.4 503.2,569.4 z m 258.4,-3599.9 c -190,95 -522.5,676.2 -617.6,1305 -94.9,628.7 201.9,949 1543.8,1755.6 1341.8,806.8 878.7,-225.3 748.1,-1043.9 -130.6,-818.5 213.8,-438.9 819.4,-854.1 605.5,-415.2 581.9,-711.7 142.2,-1328.7 -272.9,-382.8 -1231.8,-578.3 -1970.9,-694.2 -370.4,-58.2 -689.4,263.4 -626.6,632.7 19.3,113.7 13.8,201.5 -38.4,227.6 z m 2389.7,1371.3 c -712.5,569.4 475,901.6 1781.2,2182.7 793.8,778.6 2210.1,768.6 3199.4,641 387.3,-49.9 563,-505.6 315.3,-807.3 -66,-80.3 -123.5,-167.4 -166,-260.7 -237.5,-521.9 -522.5,-1209.9 -831.2,-1138.8 -308.7,71.2 -1638.8,-616.9 -2256.2,-978.2 -617.5,-361.2 -1330,-208.1 -2042.5,361.3 z m 1091.2,-863.6 c 63.3,47.5 163.6,34.3 295.5,0 131.9,-34.3 26.4,-200.4 -73.8,-282.2 -100.3,-81.6 -319.4,-210.9 -340.5,-237.1 0,0 -250.7,-76.5 -306.1,0 -55.4,76.4 29,105.3 134.6,205.5 105.5,100.2 105.5,52.7 211.1,118.6 105.5,65.9 15.8,147.7 79.2,195.2 z m 4902.5,1587 c 0,0 16.3,-131.8 -103.1,-174.6 -119.2,-42.7 -160.3,137.6 -228.9,243.1 -68.7,105.4 -31.7,332.2 -64.1,532.6 -32.4,200.3 -57.3,242.5 153.8,332.7 211.1,90.2 453.8,-32.2 453.8,-85 0,-52.7 -248,-226.7 -269.1,-511.4 -21.1,-284.7 57.6,-337.4 57.6,-337.4 z m -4058.1,6938.5 c 459.1,-268.8 -174.2,-316.3 -775.9,-1312.8 -601.5,-996.5 -934,-427.1 -1789.1,-553.6 -855,-126.6 -1472.5,-569.5 -1678.2,-649.9 0,0 -427.6,143.7 -843.7,425.5 -416.1,281.8 368.6,793.8 973.4,1062.7 604.8,268.9 1200.2,743.4 2451,1360.2 1250.9,617 1203.3,-63.2 1662.5,-332.1 z m 397.4,1382 c 47.5,179.2 1915.9,342.8 2285.3,537.8 369.4,195 833.9,1159.9 1103,964.8 269.2,-195 131.9,-437.6 131.9,-437.6 0,0 -1440.8,-1138.8 -2200.7,-1207.4 -760,-68.5 -1366.9,-36.8 -1319.5,142.4 z m 1410.8,-374.9 c 260.6,150.9 1362.9,725.9 1968.5,1040.6 87.2,45.3 172.5,-63.6 107.5,-137.2 -302.6,-342.9 -780.1,-850.8 -1152.4,-1093.2 -591.1,-385 -728.3,-464 -807.4,-469.3 -79.2,-5.3 -612.3,47.5 -855,-374.3 -242.8,-421.8 -147.8,-595.9 -274.6,-537.9 -126.6,58.1 279.8,300.6 -36.8,569.5 -316.7,268.9 -448.7,94.8 -596.5,421.8 -147.7,326.8 -591,748.6 147.8,685.4 739,-63.3 1134.8,-316.3 1498.9,-105.4 z m -17657.1,218.8 c -47.5,292.5 -285.1,387.5 0,561.4 285,174.1 1535.7,150.4 2984.5,221.1 1448.7,70.9 1907.9,648.9 2311.7,807.1 403.6,158.1 934.1,-964.8 1045,-1043.9 110.8,-79.1 324.4,-332.2 205.7,-783 -118.7,-450.8 -1923.7,-466.7 -2241.5,-553.6 -317.9,-87 -458,-506.1 -1210.1,-1194.2 -752,-688.1 -1805,-616.9 -1876.2,-616.9 0,0 -372.1,-126.5 -1163.7,-221.5 -791.7,-94.8 -451.3,379.7 -245.4,893.8 205.8,513.9 237.4,1637 190,1929.7 z m -5337.9,1559.4 c 245.1,252.5 3244.3,-136.3 4434,-301.8 142.7,-19.9 176.4,-220.8 49,-291.2 -264.5,-146.5 -595.2,-349.4 -825.5,-559.7 -443.4,-404.9 -2904.3,-377.3 -3421.1,-150.9 -516.8,226.3 -542.8,987.9 -236.4,1303.6 z m 1120,-1623.1 c 1078,-116.5 1451,-189.4 2019,-57.2 568,132.4 735.8,707.5 1342.1,837.8 606.4,130.3 360.5,-1888.1 353.5,-1988.4 -65.7,-952.2 -1832.2,-1668.6 -2419.1,-2322.1 -587.1,-653.6 -935.4,-850.9 -2281.3,-858.9 -1345.7,-8 -1219.1,1713.4 -1129,3022.2 89.9,1308.7 1036.9,1483.1 2114.8,1366.6 z m -524.1,-7010.6 c 11.9,-257.1 -118.8,-668.3 -514.6,-771.2 -395.8,-102.8 -1476.47,-106.7 -1670.48,-150.2 0,0 -886.63,284.7 -803.45,565.5 83.06,280.7 787.69,336 1108.33,601 320.6,265 906.4,976.7 1361.6,976.7 455.2,0 407.7,-316.3 471,-640.6 63.3,-324.3 35.7,-324.3 47.6,-581.2 z m 1401.2,-404.1 c -2058.3,-494.9 -950,400.1 -1361.7,1254.2 -411.7,854.2 1140,1360.3 2691.7,2246 1551.6,885.9 2533.3,601.1 4464.9,960.1 1931.7,359 1868.2,1950.4 3704.9,2375.5 1836.7,425.2 1995,-1405.9 1805.1,-2762.3 -190,-1356.6 -2818.4,-2123.3 -3895.1,-2677 -1076.6,-553.9 -1923.8,-1904.1 -2374.9,-2641.4 -696.1,-1137.7 -1804.9,-854.2 -1456.7,0 348.4,854.1 -1519.9,1739.9 -3578.2,1244.9 z m 8077.7,-3043.2 c -1208.4,-825.6 -1522.9,896.6 -1166.6,1347.5 356.3,450.8 1353.7,640.6 2470,1020.2 1116.2,379.7 736.2,664.3 1068.8,1376.1 332.5,711.8 783.7,1115.1 1899.8,1352.4 1116.3,237.2 1140.1,-877.9 1353.9,-1480.6 213.6,-602.6 -522.5,-892 -1520.1,-1366.5 -997.5,-474.6 -2422.4,-498.3 -2951,-778.8 -528.5,-280.6 -526,-1040.7 -1154.8,-1470.3 z M 22013.2,7653 c 10.1,-95.7 -79.7,-171.5 -172.5,-146.2 -293.2,79.8 -771.8,215.7 -829,267.4 -83.1,75.1 -63.3,55.4 -118.7,106.7 -55.4,51.5 -201.9,162.2 -273.1,518.4 -71.3,356.1 395.8,118.3 684.8,221.2 288.9,102.8 601.6,482.3 763.9,340 162.3,-142.3 -43.5,-351.9 -63.3,-901.6 -6.7,-185.1 -1.7,-315.1 7.9,-405.9 z m 2960.8,528.5 c -427.5,-59.3 -950,71.2 -1591.2,-327.4 -344.5,-214.1 -390.8,-487 -369.2,-793.2 10.5,-147.7 -199.2,-188.2 -245.5,-47.5 -51,154.8 -98.6,316.2 -133.5,468.1 -130.6,569.5 -71.2,427.2 0,1079.6 71.3,652.5 546.3,533.9 1080.7,1044 534.3,510.1 1246.8,628.7 997.4,94.9 -249.3,-533.8 118.7,-474.6 261.3,-877.8 142.5,-403.4 427.5,-581.4 0,-640.7 z m -969.8,-4072.9 c 316.6,-102.8 103,-403.4 506.6,-1083.6 196.8,-331.3 350.3,-677.7 455.9,-945.8 98.7,-250.3 -64.1,-526.5 -330.9,-562.5 -391.9,-52.9 -903.7,-88.3 -1106.5,45.2 -348.4,229.4 -847.2,751.3 -1678.4,719.7 -831.2,-31.6 -1488.3,300.6 -1646.6,422.9 -158.4,122.3 -514.7,605.3 308.7,1419.9 823.3,814.6 1488.3,-150.3 2097.9,-55.4 609.5,95 1076.6,142.3 1393.3,39.6 z m -862.9,-2776 c -73.9,-110.7 -686.1,-274.2 -1163.3,-311 -477.2,-36.998 -1195.8,-247.901 -1253.9,-242.6 0,0 -707.2,131.801 -955.3,585.3 -248,453.4 -190,943.7 380,801.4 570.1,-142.5 601.7,-184.6 1097.8,-153 496.2,31.7 480.3,15.9 886.6,-79 406.5,-95 322,15.8 691.4,-147.7 369.5,-163.4 390.6,-342.6 316.7,-453.4 z m -3584.5,783.6 C 19474.4,1262.3 19288,1300 19404.7,1068.9 19561,759.301 19214.7,763.199 18877,641.902 18539.1,520.699 18291.1,1279.8 18264.7,2190.8 c -26.4,910.8 601.7,312.3 760,655 158.3,342.7 -68.7,1017.6 -58.1,1555.4 10.6,537.8 1377.5,543 1652,374.3 274.4,-168.7 -823,-812 -1039.8,-1623.9 -201.8,-755.9 188.9,-33.3 19,-779.3 -19.1,-84.3 -32.6,-170 -41,-256.1 z M 5364.65,27328.5 c -71.19,1807.1 1326.07,1182.3 1599.14,972.7 273.19,-209.6 -1592.37,-1144 -1599.14,-972.7 z m -189.9,2225.1 c -187.01,775 575.02,1312.9 717.5,102.9 30.43,-258.5 45.64,-470 50.86,-642.9 10.89,-363 -504.17,-449.7 -612.45,-103 -47.75,153.1 -84.95,349.1 -155.91,643 z m -1785.27,-3878 c 0,0 -176.8,927.9 50.2,1101.8 226.88,174.1 831.22,-216.1 973.7,-390.2 142.48,-173.9 -989.58,-677.5 -1023.9,-711.6 z M 44419.1,16349.2 c 182,-9.9 195.9,21.7 387.9,-13.9 191.9,-35.5 300.8,-57.2 496.7,-59.2 195.9,-2 170.2,-87 170.2,-189.8 0,-102.9 -112.8,-100.9 -186.1,-211.6 -73.2,-110.7 -223.6,-39.5 -245.4,-43.5 0,0 -136.5,49.4 -437.3,94.8 -300.9,45.5 -205.9,73.3 -285.1,106.9 -79.1,33.6 -158.2,59.2 -184,253 -25.8,193.7 100.9,73.2 283.1,63.3 z M 3322.07,3261.3 C 1783.67,3734.5 728.238,4403.7 24.9492,5103.4 V 3295.3 C 2160.47,3904.9 8408.57,945.098 8408.57,945.098 9284.32,560.199 9783.94,250.098 9990.95,0 h 991.55 c -391.9,482.898 -1751.37,963.301 -1053.97,1221.9 767.97,284.7 -395.78,688.1 -94.94,869.9 300.81,181.9 1076.61,-332.2 1860.31,-411.2 783.8,-79 2786.6,118.7 3475.4,-1115.1 C 15283.1,361.699 15369,173 15433.1,0 h 535.3 c -22,14.5 -44.2,30.0977 -66.6,46.6016 0,0 -544.3,1590.6984 -2299.8,1835.2984 -1755.5,244.7 -3102.8,-312.6 -3306.9,734.2 -204.1,1046.7 -585.12,1876 217.8,1944 802.9,68 1633,-176.7 2313.4,-625.3 680.4,-448.7 1714.7,-897.3 2408.7,-938 694,-40.9 2109.3,27.1 2218.2,-883.7 70.5,-589.9 -64.5,-1675.799 -515.8,-2113.1 h 542.8 c -204.7,644.699 2981.4,587.199 3634.5,557.598 696.6,-31.7 1504.2,174.004 2325.9,474.502 821.9,300.5 1537.3,110.7 2059.8,-616.901 96.4,-134.301 190.8,-275 280.5,-415.199 h 831.1 c -274,449.801 -639.6,1047.4 -1136.8,1841.4 -2010.8,3210.9 -475,1138.8 -1710,3543.1 -1235,2404.2 1456.7,2957.8 1393.4,2072.1 -63.4,-885.8 665,-680.2 1393.3,-2040.4 728.3,-1360.4 -63.3,-696.1 -253.4,-2072 -190,-1375.9 855,-1581.9 1725.9,-2327.2 326.5,-279.598 679.9,-655.801 993.9,-1017 h 407.2 c -243.1,278.199 -445.5,598.301 -616,873.898 C 28310.8,1680.6 28358.3,1324.7 27194.6,2511 26030.8,3697.3 26838.4,4219.3 28120.8,4717.6 29403.3,5215.8 29332,4124.4 30424.6,3539.4 31517,2954.4 32657,2795.7 35079.5,1894.1 37501.9,992.5 43755.1,680.598 43866.8,589.199 44141,365 44338.1,169.5 44467.3,0 h 1453.4 v 1122.6 c -1635,-213.498 -4963.8,-420.198 -8656.2,652.9 -5225,1518.5 -7536.7,2056.2 -4686.7,3131.9 2850,1075.6 3293.3,885.7 5414.9,-411.3 2121.7,-1297 4275,-1264.9 4781.7,-1217.8 227.8,21.2 1798.8,58.5 3146.3,-102.2 v 565.1 c -272.3,52 -576.9,100.8 -913.8,141.8 -1757.5,213.4 -2588.8,-972.9 -3681.3,498.2 -1092.5,1471 -498.7,3036.9 -1923.7,3819.8 -1424.9,783 -3016.2,3914.8 -855,2704.9 2161.3,-1210.1 2280,-735.6 3087.4,-2491.3 807.6,-1755.8 2137.6,-2802.9 3681.3,-3050.4 184.8,-29.6 390.2,-70.3 605.1,-120.4 v 630.1 c -556.4,265.4 -1082.1,229.8 -2267.6,694.3 -1211.2,474.5 -878.7,664.3 -854.9,1565.9 23.6,901.5 1329.9,94.9 2944.8,-379.6 61.1,-18 120.3,-33.9 177.7,-47.6 v 693.6 c -1394.2,169.7 -2666.7,12 -3182,587.7 -566,632.7 -977.7,300.6 -1484.3,838.3 -506.7,537.9 -1662.5,857.5 -1836.7,1354 -174.1,496.6 -395.7,322.7 1440.8,69.6 1836.7,-253.1 2169.2,-759.3 2660,-1028.2 359,-196.6 1547.8,-29.4 2402.2,-86.3 v 1048.2 c -433,-173.9 -993,-446.2 -1373,-487.3 -585.8,-63.3 -680.9,316.3 -981.7,801.3 -300.9,485 47.5,717.2 1029.2,938.6 647,146 922.6,72 1325.5,-22.5 v 747.7 c -279,-131.8 -657.8,-218.2 -1156.5,-158.5 -1337.5,159.9 -2352.4,177.3 -2899.7,1170.7 -547.2,993.5 -2611.6,1100.1 -3076.2,1619.6 -464.7,519.5 -1221.1,552.2 -696.6,1618.3 524.6,1065.9 421.6,2043.3 1763.2,1780.8 1341.8,-262.4 2056.7,83.1 2833.1,-1088.7 776.2,-1171.7 775.8,-1941.1 1867.3,-2288 415.7,-132 932.3,-240.1 1365.4,-409.1 v 188.7 c -125.6,46.1 -230.3,97.7 -285.8,153.1 -221.7,221.5 311.4,463 -348.4,652.7 -659.7,189.8 -849.7,11.7 -1018.6,64.4 -168.9,52.7 -242.7,184.5 -137.1,896.3 105.5,711.7 474.9,-26.3 696.6,152.8 184,148.8 524.3,232.3 1093.3,66.5 v 1590.9 c -29.3,-1.2 -59.5,-0.5 -90.6,2.5 -496.1,47.4 -1134.6,-316.4 -1356.3,-126.6 -221.7,189.9 -210.9,321.7 -242.6,574.7 -31.9,253.1 142.3,490.4 189.7,590.6 47.6,100.1 -168.8,295.2 538.4,242.5 473.1,-35.3 698.2,-110.6 961.4,-80.9 v 406 c -440.2,-43.7 -874.5,-60.6 -1191.5,-122 -871.3,-168.6 -1788.6,144.9 -3379.8,761.7 -1591.3,616.9 -3823.8,-522 -4465,-545.7 -641.2,-23.7 -190,830.4 714,2111.7 903.8,1281.1 -524,237.3 -927.7,735.5 -403.7,498.2 -261.2,782.9 1805,1945.5 2066.2,1162.5 2493.7,166 4726.1,23.7 2158.1,-137.6 1764,1343.3 2718.9,1699.3 v 599.7 c -332.6,27.7 -614.1,31.5 -668.4,-29.1 -134.6,-150.4 39.5,-790.9 -799.6,-1249.7 -839.2,-458.7 -1789.1,-529.8 -3103.3,-47.5 -1314.2,482.5 -1694.1,-197.7 -2153.3,664.5 -459.2,862 15.8,909.5 -736.3,2056.1 -338.8,516.7 -428.5,922.5 -321.4,1182.1 h -349.2 c 80.9,-509.2 423.4,-1061.3 433.2,-1106.9 0,0 340.4,-395.4 87,-719.7 -253.3,-324.2 -609.5,696 -779.8,1077.8 -81.3,182.4 -150.9,446.3 -206.4,748.8 h -321.7 c 178.3,-578.4 417.1,-1126.8 688.6,-1486.7 488.7,-648.1 1620.2,-1855.4 891,-2641.5 -729.4,-786 -2883.5,-2031.3 -3015.5,-183.8 0,0 1005.7,1687.7 -104.6,3434.1 -205.7,323.4 -425.3,613.7 -641.6,877.9 H 33836 c 359.1,-629.9 2.3,-717 -52.5,-901.3 -63.4,-213.5 -723,-427.1 -887.9,-664.3 -164.9,-237.3 -228.4,-439 -811.9,-866 -377.6,-276.5 -1199.8,-460.2 -1732.9,-555.3 -242.1,-43.3 -478.7,-110.2 -711.3,-190 -531.6,-182.3 -857.5,418.4 -689,733.5 174.4,326.2 423.5,1759.2 346.4,2443.4 h -1056.5 c 705.2,-130.3 646.4,-1279.9 646.4,-1279.9 0,0 -823.6,-2504.4 -2739.1,-3620.1 -1915.4,-1115.6 -796,-2009.2 -3197.7,-2312.3 -1014.1,-127.9 -314.6,1106.9 -864.8,1606.8 -550.1,499.8 -1544.5,-786.5 -2590.3,92.7 -1045.9,879.2 -2443.3,644.9 -610.8,2722.5 1832.5,2077.6 3021.7,2290.5 3855.5,1929.8 833.7,-360.7 897.6,-1426 4623.3,636.3 231.2,127.9 427.5,198.1 594.1,224.2 h -2067.8 c 38.5,-62.9 75.5,-134.4 109.9,-217.2 253.4,-609.1 -981.5,-276.8 -1646.6,-419.1 -665,-142.4 -1195.4,150.2 -2002.8,260.9 -626.9,86 -1530.7,-443 -1936.8,-739.4 -136.4,-99.4 -320.6,-101.5 -459.2,-5.2 -338.9,235.5 -967.1,678.7 -1540.8,1120 h -227.8 c 37.9,-33.4 74.1,-65.3 107.2,-93.8 34.1,-29.4 13.5,-85.3 -31.6,-85.8 -216.8,-2.3 -631.1,-2.4 -721.7,28.3 -108.7,36.9 -122.1,82.1 -130.9,151.3 h -101.9 c -22.4,-42.6 -68.6,-72.6 -125.2,-66.5 -156.4,16.7 -361,39.3 -591.5,66.5 h -1245.8 c 212.2,-69.5 401.3,-144.9 546.1,-215.3 617.4,-300.4 1936.8,153 2285.2,-237.2 287.9,-322.4 -635.2,-810.4 -977.8,-992.5 -70.6,-37.5 -158,-21.1 -209.7,39.8 -84.4,99.4 -225.8,250.4 -406.4,383.2 -300.9,221.5 -1936.9,442.9 -2665.3,58.1 -728.2,-384.9 -406.3,-358.6 -395.7,-564.2 10.5,-205.7 -263.9,-210.9 -316.8,-142.3 -52.7,68.4 -427.4,706.5 -617.4,848.8 -169.8,127.1 52.2,490 511.6,821.6 h -157 c -48.7,-59.8 -89.4,-116.6 -122.4,-164.6 -190,-276.8 -316.6,-355.8 -641.2,-347.9 -184.1,4.4 -192.5,245.5 -191.2,512.5 h -256.6 c 0.4,-1.5 0.7,-3.1 1,-4.6 46.2,-218.3 -146,-412.5 -365.2,-370.7 -1089.6,207.6 -3902.93,636.5 -3922.14,-466.6 -1.67,-99.9 -9.67,-195.2 -23.1,-286.1 -128.93,-876.5 -1444.34,-715.6 -1364.38,166.6 27.32,301.3 76.84,625.6 159.13,961.4 H 5138.32 c 1.44,-13.4 3,-26.8 4.67,-40.1 26.21,-213.4 -164.58,-389.4 -375.14,-345.4 -566.58,118.3 -1510.64,297.6 -1984.93,287 -316.5,-7.1 -446.1,33.6 -524.39,98.5 h -841.44 c 506.29,-226.1 1037.78,-393.8 1449.56,-418 693.96,-40.8 2109.31,27.2 2218.14,-883.8 108.84,-910.8 -272.18,-3004.3 -1551.39,-2066.3 0,0 -544.26,1590.5 -2299.76,1835.3 -431.218,60.1 -837.671,71.7 -1208.6908,70.7 V 28846 C 868.945,28733.1 1771.01,28450 2554.26,28123.3 3634.91,27672.5 3183.7,26355.6 2411.79,25691.3 2014.77,25349.6 957.785,25138.1 24.9492,25013.5 v -327 c 381.4648,7.2 808.6758,4.1 1264.2108,18.2 1618.36,50 2522.87,1015.1 4684.83,2422 1216.23,791.3 1572.71,1499.4 1652,1967.6 66.63,394 363.58,709.7 755.38,789.8 1033.77,211.3 2859.83,391.1 4198.63,-541.4 1971.2,-1373 783.4,-1977.5 -625.5,-2740.9 -1409.1,-763.5 -927.8,-461.2 -3746.16,-4011.9 C 5389.85,19039.3 4924.21,19225.4 3938.74,20474.1 3284.98,21302.5 1341.8,22067.9 24.9492,22528.8 V 21687 C 535.898,21378.9 956.672,20962.7 832.406,20625.8 583.094,19949.7 108.121,17505.9 48.7188,16509.4 c -59.4141,-996.5 308.7222,-1732 308.7222,-1732 72.735,-122.4 -75.406,-291.6 -332.4918,-460.2 v -183.1 c 534.6058,195.1 1045.0008,257.3 1354.0608,115.2 1148.27,-528.1 1765.05,-1069.5 2097.54,-1658.7 222.76,-394.7 -1955.52,-984.7 -3451.6008,-1311 v -341.1 c 2569.6208,941.6 3057.8108,718.3 5098.2708,-529.1 2121.64,-1297 4274.93,-1265 4781.55,-1217.7 466.33,43.5 6562.63,154.1 4844.43,-1504.4 C 14436.5,7385.4 14036.8,7189.2 13607.7,7118 12290,6899.3 8575.59,6473.9 4394.94,7688.8 2535.61,8229.2 1045.07,8645.3 24.9492,9005.8 V 8293.9 C 1748.91,7868.2 4816.72,6256.4 5012.39,5403.3 c 64.19,-279.8 85.4,-573.5 80.85,-857.1 C 5078.46,3634.3 4194.5,2993 3322.07,3261.3"
         style="fill:#438dd0;fill-opacity:1;fill-rule:nonzero;stroke:none"
         id="path14" />
      <path
         d="m 43653.3,26808.6 c 35,-1141.4 -2260.5,-1609.2 -2485.3,-1566.4 0,0 -1017.2,-441 -1852.1,55 -834.7,496 33,547.4 477.6,1840.2 444.8,1292.6 -667.9,724.6 -533.6,1610.4 134.2,885.8 999.7,1011.7 2063.7,733.8 1064.2,-277.8 1352.2,-355.8 2070.5,-694 718.1,-338.1 224.3,-837.6 259.2,-1979 z m -5638.7,-1256.5 c -375.9,8.4 -167,401.1 -208.9,760.5 -41.7,359.3 -593.2,492.9 -635.1,810.5 -41.7,317.6 944.4,-100.2 1429.1,0 484.6,100.3 581,631.5 643.4,643.4 1044.6,200.6 -50.1,-944.2 -467.9,-1462.3 -417.9,-518.2 -384.5,-760.5 -760.6,-752.1 z m -721.4,-186.7 c -339.8,-228.3 -818.9,-105.8 -1944.2,-389.8 -1125.4,-284.2 -1498.6,-384.5 -1069.7,85.9 429,470.5 523.6,950.2 384.4,1490.6 -139.3,540.4 -2306.4,1526.5 -2172.7,1949.9 133.7,423.4 1548.8,-178.3 1582.2,-211.7 0,0 2924.7,-1649.1 3281.3,-1972.2 356.5,-323 278.6,-724.2 -61.3,-952.7 z m -4881.6,-903.9 c -1078,-1065.4 -1328.7,-1002.7 -3133.7,-1102.9 -1805,-100.4 -1403.9,1128 -2068.3,1040.3 -664.3,-87.8 -739.6,137.9 -1115.6,664.3 -376.1,526.5 -1015.3,75.3 -927.5,676.9 87.7,601.7 263.2,1341.3 638.3,1466.6 375,125.4 1417.4,-576.6 2796.3,-451.2 945.7,85.9 1050.8,115.6 1236.1,439.5 149.4,261.3 160.4,576.2 42.5,853.1 -55.4,130.3 -76.1,344 -12.6,692.3 187.9,1032.3 1303.5,835.4 1040.3,296.6 -263.2,-538.6 915.1,-1090.8 2720.1,-2206.4 1805,-1115.6 -138,-1303.5 -1215.9,-2369.1 z m 1344,-2093.2 c -5.6,-351 -579.4,-200.6 -885.8,-423.5 -306.3,-222.8 -779.9,-662.9 -908,-584.9 -128.2,78 -195.1,662.9 -261.9,874.6 -66.8,211.7 -440.1,529.3 -373.3,891.4 66.9,362.1 267.4,312 702,406.7 434.5,94.8 880.1,1082.1 1091.9,1103.1 791.1,78 117,-830.2 72.5,-1119.8 -44.6,-289.7 568.1,-796.7 562.6,-1147.6 z m 147.7,-50 c -8.4,133 106.2,240.9 238.5,224 574.5,-73.1 1930.7,-257.3 2209.9,-396.9 356.6,-178.3 351,-390 100.3,-417.8 -250.7,-27.9 -2819,-222.8 -2891.4,-72.4 -72.3,150.4 328.7,434.5 345.4,456.8 7.5,10.1 3.8,105 -2.7,206.3 z m 4966.5,-986 c 2468.3,-661.7 3562.5,-1068.8 3537.1,-1832.2 -25.4,-763.4 -254.5,-1399.6 -1068.8,-788.9 -814.3,610.7 -636.2,1577.7 -2850.1,1501.4 -2213.8,-76.3 -4402.3,-773.1 -5343.8,-551.9 -941.5,221.1 -1297.8,882.7 -229.1,1060.9 0,0 3486.3,1272.4 5954.7,610.7 z m -111.4,676.7 c 137.9,233.9 2264.7,-133.8 2264.7,-133.8 0,0 894.2,133.8 1688,-279.9 793.9,-413.7 2013.9,-1286.9 2360.7,-1600.4 346.8,-313.3 41.8,-384.3 -1153.2,-610 -1194.9,-225.5 -927.6,468.1 -1291.1,894.2 -363.5,426.2 -1637.8,681.1 -2122.6,760.4 -484.7,79.5 -1884.3,735.5 -1746.5,969.5 z m 4621.2,-4780.1 c 167.2,-919.1 150.4,-810.5 -417.9,-885.7 -568.2,-75.3 -1621.1,-651.8 -2214.5,-576.7 -593.2,75.3 -1144.8,-693.6 -1596,-701.9 -451.3,-8.3 -593.4,1228.4 -919.2,1454.1 -325.9,225.6 -1980.5,-142.1 -1988.9,167.1 -8.4,309.1 2481.9,869.1 2899.7,1236.7 272.4,239.8 687.1,643 942.5,894.6 123.3,121.3 321.2,121.3 444.6,0.1 360.7,-354.4 1085.7,-980.5 1512.7,-760.9 584.9,300.8 1587.7,1027.8 1774.4,1078 186.7,50.1 707.4,8.3 916.3,-91.9 209.1,-100.4 710.4,-651.9 718.7,-760.5 8.4,-108.6 -2239.5,-133.7 -2072.4,-1053 z M 40989.7,10630 c -58.5,-506.9 183.8,-1465.2 -626.8,-1364.8 -810.6,100.2 -1136.5,417.8 -1900.7,718.6 -764.1,300.9 -213.5,559.9 -405.7,961 -192.3,401.1 -83.6,367.7 501.3,827.3 351.6,276.2 407.4,974.8 395.9,1488.4 -6.2,280.3 305,450.1 538.3,294.6 1314.4,-875.5 1549.3,-2477.5 1497.7,-2925.1 z M 39225.4,7577.5 c -816.8,-273.5 -1270.5,316.4 -2790.7,566 -1520.2,249.5 -839.6,1043.7 -2632,431.1 -1792.4,-612.6 -1815.1,-930.3 -3199.2,-1452.2 -1384.1,-521.7 -2858.9,-884.8 -3766.4,-453.7 -78,37 -156.9,86.6 -235.8,146.3 -1209.3,913.7 -866.7,2815.2 578.9,3271 1602.7,505.2 3684.6,939.6 4966.2,349.1 2314.3,-1066.4 4356.3,-952.9 5263.9,-703.4 907.6,249.6 1905.9,-680.7 2019.3,-1179.8 113.5,-499.2 612.7,-700.9 -204.2,-974.4 z M 36017.5,4698.2 c -1259.1,-176.8 -1766,333 -2117.1,572.6 -351,239.4 -635,33.4 -1013.9,278.5 -378.8,245.1 -1013.9,1008.4 -1214.4,1431.8 -200.6,423.3 2915.3,1395.2 3025,1398.2 1208.9,33.4 4016.8,-1515.2 4039,-1901.5 22.3,-386.2 -1459.6,-1602.7 -2718.6,-1779.6 z m -763.3,-998.5 c -256.2,94.6 -353.7,317.5 -470.7,635 -117,317.6 821.7,178.3 821.7,178.3 0,0 351,-122.5 398.3,-364.9 47.4,-242.3 -493,-543.1 -749.3,-448.4 z M 32457.6,1092.4 c -1362.1,242.3 167.1,1412.2 1211.7,1955.4 287.3,149.4 492.3,380.9 638.7,638.2 139.8,245.7 513.9,165.3 544.5,-115.8 87.8,-806.7 183.6,-1692.1 226.7,-2110 89.7,-869.098 -1259.6,-610.102 -2621.6,-367.8 z m -869.1,752.1 C 31460.4,1604.9 30836.4,1097.9 30463.2,903 30089.9,708.098 29282,691.301 28830.8,1120.3 c -451.3,428.9 1938.8,2896.9 1938.8,2896.9 0,0 55.7,139.3 189.3,312 133.8,172.7 495.9,-451.3 640.8,-885.8 144.7,-434.6 974.9,-339.9 986,-612.8 11.2,-273 -869.1,-746.6 -997.2,-986.1 z M 30023,92.4023 c -62.3,-42.8007 -550.1,327.7967 -838.5,554.9997 -57.9,45.598 -17.4,138.399 55.3,126.797 280.2,-44.398 688.5,-108.097 749.8,-113.5 94.7,-8.5 133.7,-114.199 142.1,-189.398 C 30140,396 30112.2,153.699 30023,92.4023 Z M 29874.7,5886.9 c 0,0 237.1,445.4 905.6,365.4 668.4,-80 1175.5,-88.8 1449,-585.7 273.5,-497 1305,-550.2 1537.2,-810.1 232.4,-259.9 610.3,-276.2 348.2,-809.4 -262.1,-533.3 -210.6,-1022.1 -881.2,-890.9 -670.4,131.2 -1027.7,-41.5 -1415.7,544.6 -387.9,586.1 -387.6,971 -933.1,1144.6 -545.4,173.4 -1439.6,263.9 -1010,1041.5 z m -4484.3,2984.5 c -565.8,-461.4 -531,-278.5 -1271.1,-87 -739.9,191.5 -1088,-313.4 -1131.6,-346.9 -43.5,-33.7 -444,-314.7 -1279.7,-1098.2 -835.6,-783.4 -487.5,-696.4 -835.6,-992.4 -348.3,-295.9 -653,-383 -905.4,-95.7 -252.5,287.2 -174.2,539.7 0,1288.3 174.1,748.7 252.4,426.6 748.6,661.6 496.2,235.1 983.8,1018.6 914,1776 -60.9,662.9 -348.6,1112.3 -419.4,1214.2 -15.4,22 -23.3,49.6 -17.5,75.8 75.1,336.7 1740.6,572.4 2526.2,729.5 827,165.4 853.2,-487.4 1227.5,-1070.7 374.3,-583.2 591.9,-713.8 1001.1,-1105.6 409.2,-391.7 8.7,-487.5 -557.1,-948.9 z m -558.2,-1143.9 c -192.3,-146.2 -1261.8,-522.3 -1412.2,-593.2 -150.5,-71.1 -372,-580.9 -635.1,-1015.4 -263.3,-434.6 -1103.1,-1119.7 -1650.6,-1195 -547.3,-75.1 -96,781.3 -104.4,873.3 -8.3,91.9 162.9,208.9 601.7,877.4 158.6,241.6 339,405.3 505.4,516.1 313.1,208.5 611.2,439.2 883.4,698.9 122.6,116.8 289.5,249.3 516.6,389.5 764.5,472.2 777.1,71 1023.6,45.9 246.5,-25.1 463.8,-451.3 271.6,-597.5 z M 18736.1,3677.3 c -944.3,-448.5 -526.5,356.6 -501.4,1041.9 25.1,685.2 -1044.6,1019.5 -1044.6,1019.5 0,0 1245.2,183.8 1587.8,336.3 342.5,152.5 676.9,106.6 1027.8,0 351,-106.5 618.4,-328 735.4,-862.7 117,-534.9 -860.7,-1086.5 -1805,-1535 z M 15928.3,3098 c -1245.1,-108.7 -735.5,-685.3 -1763.3,-1378.9 -1027.8,-693.5 -927.6,-1562.6 -1721.4,-635 -793.9,927.6 -526.5,2573.8 -83.6,3075.1 442.9,501.5 1286.9,451.4 1562.7,585 275.7,133.7 1571.1,785.5 1571.1,785.5 0,0 1896.9,75.3 2197.7,-568.2 300.9,-643.4 -518.2,-1754.8 -1763.2,-1863.5 z m 4662.9,5540.4 c -183.9,-142.1 -601.7,33.4 -518.1,688.1 83.6,654.6 646,1010.9 646,1010.9 520.6,381.6 56,-1556.9 -127.9,-1699 z M 12251,5638.5 c 808.8,1155.5 -808.7,962.9 -1549.7,1694.6 -740.99,731.8 586.9,1136.1 972,2407.1 385.2,1270.9 2137.5,1116.9 4236.5,1311.2 2098.9,194.4 2426.3,2039.4 2426.3,2039.4 0,0 962.9,539.2 2060.4,404.4 1097.6,-134.8 635.5,-1540.6 0,-2291.5 -635.4,-751 -1367.1,-1463.5 -1444.2,-3562.4 -77,-2099.1 -2253,-1309.5 -4294.2,-2099.1 -2041.3,-789.5 -3215.8,-1059.1 -2407.1,96.3 z m -3275.38,4738.1 c -836.16,94.2 -1364.37,343.3 -1689.44,580.9 -194.59,142.3 -83.46,450.6 157.21,435.5 485.54,-30.4 1118.78,17 1398.48,412.5 484.72,685.3 409.46,1303.7 760.43,1972.2 350.97,668.5 175.49,718.7 685.3,685.2 509.7,-33.4 1111.4,83.6 2013.9,209 902.5,125.3 802.3,-282.4 1546,63.5 743.7,346 969.3,972.6 1286.8,696.9 317.6,-275.8 961.1,-225.6 434.6,-810.6 -526.5,-584.9 -626.7,-935.9 -1378.8,-994.4 -752.1,-58.5 693.6,-626.8 -735.3,-860.8 -1429,-233.9 -1420.7,-584.9 -2039,-1286.8 -618.5,-702 -660.2,-1303.7 -2440.18,-1103.1 z m -1738.2,-827.3 c -1337.06,-167.1 -1679.7,451.2 -1821.78,517.2 -141.96,66 -317.56,76.1 -325.88,270.9 -8.33,195 217.33,80.9 250.74,47.8 0,0 593.27,-16.9 919.16,175.2 326,192.2 242.41,509.8 250.74,784.8 8.32,275.1 442.87,0 442.87,0 0,0 -91.9,-233.3 233.39,-617.7 325.3,-384.3 1563.3,-442.8 1788.96,-465.6 225.54,-22.8 317.56,-102.7 401.03,-277.3 83.58,-174.7 -802.17,-268.2 -2139.23,-435.3 z m -3286.96,788.1 c -378.76,214.7 -495.75,36.4 -874.61,236.9 -378.87,200.6 83.58,438.8 55.68,770.9 -27.79,332.2 -562.68,733.3 -55.68,844.7 0,0 573.81,-44.5 690.8,-289.6 116.99,-245.2 0,-317.6 0,-417.8 0,-100.4 -116.99,-339.9 434.55,-713.2 551.54,-373.3 128.12,-646.4 -250.74,-431.9 z M 2396.18,13410 c 239.6,27.9 133.75,-228.4 490.23,-27.8 223.9,125.9 379.69,458.4 464.68,688.2 32.7,88.9 154.15,99 200.92,16.8 158.02,-277.9 443.93,-781.2 727.14,-1284.4 423.42,-752.2 484.73,-579.5 1064.16,-835.7 579.32,-256.3 1064.05,-345.4 902.51,-651.8 -161.65,-306.4 768.76,-757.6 -551.54,-618.4 -1320.41,139.3 -1844.05,306.4 -1632.34,668.6 211.7,362.1 390,601.6 -122.62,796.6 -512.51,195 -740.86,55.7 -1013.87,473.5 -273.02,417.9 -768.87,746.6 -529.27,774.4 z m -356.6,-1331.5 c -696.31,-233.9 -985.97,128.2 -958.19,178.4 27.9,50 105.86,183.8 44.55,389.8 -61.19,206.2 211.7,579.5 211.7,579.5 0,0 339.84,139.2 546.04,183.8 206.07,44.5 339.83,-100.2 370.19,-150.4 30.48,-50.2 47.59,-289.7 348.39,-585 300.92,-295.2 133.75,-362.1 -562.68,-596.1 z m 476.64,3376.3 c -438.77,139.5 -984.1,253.7 -1441.28,432.2 -743.78,290.3 -1254.174,751 -692.202,1768.1 0,0 197.055,370 692.202,604.2 294.47,139.3 694.33,230.6 1220.78,167.5 1411.85,-168.9 2483.16,-187.3 3060.84,-1237 577.68,-1049.8 2756.76,-1162.4 3247.23,-1711.3 490.58,-548.9 1289,-583.5 735.34,-1709.9 -553.76,-1126.3 -445.09,-2159.1 -1861.28,-1881.7 -1416.3,277.2 -2170.99,-87.8 -2990.51,1150.3 -819.39,1238.1 -818.92,2051.1 -1971.12,2417.6 z m 143.83,-563.6 c -192.13,10.5 -206.78,-22.9 -409.46,14.7 -202.56,37.5 -317.56,60.5 -524.35,62.6 -206.78,2.1 -179.7,91.9 -179.7,200.5 0,108.7 119.1,106.6 196.47,223.6 77.25,117 236.09,41.7 259.06,45.9 0,0 144.07,-52.1 461.63,-100.2 317.56,-48 217.33,-77.3 300.92,-112.9 83.46,-35.5 167.04,-62.6 194.24,-267.4 27.19,-204.6 -106.56,-77.2 -298.81,-66.8 z m 1192.99,4301.6 c 75.84,161.2 76.31,521.3 68.7,816.9 -5.75,224.4 204.08,392.5 421.77,337.5 540.28,-136.2 1482.53,-361.9 2133.48,-452.5 961,-133.7 1688.03,133.8 2473.55,-158.7 785.51,-292.6 116.99,-576.6 869.1,-718.7 752.06,-142.1 1454.06,-58.5 1537.66,-409.5 83.4,-350.9 -1320.4,-643.4 -2498.67,-467.9 -1178.33,175.4 -2005.58,-434.6 -2615.62,-760.5 -610.03,-326 -1922.01,1036.2 -2590.54,1295.2 -668.53,259.1 66.82,234 200.57,518.2 z m -348.27,1470.7 c -178.18,133.7 -139.26,345.4 -623.87,328.7 -484.72,-16.7 -963.82,-169.2 -1170.01,-120.8 -206.08,48.4 -284.04,193.2 -50.06,232.2 0,0 763.25,278.6 1303.53,133.7 540.41,-144.8 780.01,-234 774.39,-401 -5.51,-167.2 -55.69,-306.5 -233.98,-172.8 z m 6384.5,-980.5 c 44.54,167.2 417.83,495.9 512.53,514.7 0,0 306.4,103.7 473.6,-102.4 167,-206.2 -5.7,-657.4 -206.2,-752.1 -200.6,-94.8 -278.6,-139.3 -568.2,-156.1 -289.81,-16.6 -256.28,328.7 -211.73,495.9 z m -2635.09,5451.3 c -175.48,200.5 -400.43,311.8 -24.38,938.5 376.06,626.8 1303.65,75.2 2582.21,-426.1 1278.59,-501.5 2306.39,-50.2 4462.39,325.8 1212.8,211.5 1727.5,645.1 1945.8,984.1 183.6,285.1 520.7,432.5 852.9,364.1 876.7,-180.3 2360.6,-649.6 3092.7,-1824.6 1078,-1729.7 -50.1,-1805 -1403.8,-1930.3 -1353.9,-125.3 -877.6,-50.2 -4262,-1880.1 -3384.3,-1830.1 -3685.1,-1529.3 -4036.2,-225.7 -351,1303.6 -3034.13,3473.7 -3209.62,3674.3 z m -538.99,1566.8 c -66.93,133.7 -33.53,219.8 -221.55,381.4 -188.03,161.8 -238.09,349.8 -238.09,349.8 12.54,0 330.11,157.6 518.13,143.6 188.03,-14 87.69,-64.2 292.48,-89.3 204.67,-25.1 321.66,58.5 392.7,-20.8 71.04,-79.4 121.21,-150.4 37.63,-263.2 -83.58,-112.9 -108.67,-133.8 -200.57,-184 -91.91,-50 225.66,-476.2 -142.08,-426.1 -367.73,50.1 -371.83,-25 -438.65,108.6 z m -447.1,1358 c 75.15,221.5 484.61,79.4 501.37,75.2 0,0 246.52,45.9 371.84,48.7 125.31,2.7 325.88,-115.5 376.05,-332.9 50.17,-217.2 -54.27,-225.5 -350.97,-267.8 -296.69,-42.4 -217.21,142.5 -413.68,71.5 -196.35,-71.1 -229.76,-91.9 -484.61,-50.2 -254.96,41.8 -75.25,234 0,455.5 z m 2910.1,-1930.4 c -321.67,75.2 -589.06,240.3 -589.06,240.3 -37.62,114.9 208.9,173.4 401.03,104.4 192.25,-68.9 163.06,-117 317.56,-146.3 154.62,-29.1 110.77,-64.7 181.81,-123.2 71.04,-58.5 10.43,-150.4 -311.34,-75.2 z m -1467.42,701.9 c 66.7,61.3 139.5,156 100.46,300.9 -39.03,144.8 44.55,445.7 523.65,373.3 479.09,-72.5 395.63,-273 607.33,-422.3 211.59,-149.1 1387.09,-407.8 1387.09,-407.8 0,0 568.3,-707.6 -44.5,-635.1 -612.87,72.4 -350.99,144.8 -1025.14,495.7 -674.04,351.1 -545.92,-5.5 -1136.49,-50 -590.46,-44.6 -479.1,284.1 -412.4,345.3 z M 20165,26885 c 192.3,192.1 647.7,-129.5 676.9,-175.5 0,0 242.4,-104.4 292.4,-330.1 50.2,-225.6 -100.2,-83.6 -396.9,-217.3 -296.5,-133.6 -16.6,-234 -192.1,-355.1 -175.5,-121.2 -338.4,8.3 -463.9,238.1 -125.3,229.9 -158.7,292.5 -217.2,472.2 -58.5,179.7 108.7,175.5 300.8,367.7 z m 1063.4,-595.5 c 0,0 129.5,-20.9 117,-323.7 -12.5,-303 -156.7,-148.3 -315.5,-236.1 -158.7,-87.7 -213,-355.1 -419.9,-334.3 -206.8,20.9 -137.8,173.4 -137.8,259.1 0,85.6 139.9,102.3 196.3,183.8 56.4,81.5 -31.3,154.6 20.9,229.8 52.2,75.2 175.5,43.9 350.9,48 175.6,4.3 181.9,163 188.1,173.4 z m 537,-783.4 c 396.9,79.5 409.4,-234 589,-513.9 179.7,-279.9 284.2,-342.6 480.5,-530.7 196.5,-188 4.2,-234 -267.4,-455.4 -271.6,-221.4 -254.8,-133.6 -610,-41.7 -355.1,91.9 -522.2,-150.4 -543.1,-166.6 -21,-16.2 -213.1,-151 -614.3,-527 -401.1,-376.1 -233.9,-334.2 -401.1,-476.3 -167.2,-142.1 -313.3,-183.9 -434.5,-46 -121.1,137.9 -83.6,259 0,618.4 83.5,359.3 121.2,204.7 359.4,317.5 238,112.8 472,488.9 438.6,852.4 -29.2,318.1 -167.3,533.9 -201.3,582.8 -7.3,10.6 -11.2,23.8 -8.4,36.4 36,161.6 835.5,274.7 1212.6,350.1 z m 3433.1,-4280 c -417.9,-233.9 -1871.9,-423.3 -1966.5,-284 -34.3,50.3 -35.1,107.4 -22.1,159.9 23.8,96.5 95.9,173.7 188.6,209 276.4,105.4 1045.6,403.8 1257.1,544.8 259.3,172.6 632,456.8 938.4,701.9 306.5,245.1 378.9,-5.6 378.9,-440.2 0,-434.5 -356.6,-657.4 -774.4,-891.4 z m 5526.4,551.6 c -534.7,-328.7 -713,-362.1 -1075.1,-1298 -362.2,-936 -1013.9,-1387.3 -1030.7,-1171.2 -16.7,216 -267.4,508.3 -701.9,836.9 -434.6,328.7 -72.5,345.4 362.1,523.7 434.5,178.3 189.4,1058.5 117,1727 -24.6,226.9 -106.2,409.9 -203.4,552.7 -105.1,154.3 16,361 201.8,341.3 410.9,-43.6 918.7,-104.4 1199.4,-164.2 523.6,-111.4 896.8,78 1359.3,-155.9 462.3,-234 306.4,-863.6 -228.5,-1192.3 z m -9172.6,-9128.1 c 142,743.7 -71.1,781.3 167.1,969.3 238.1,188 551.6,584.9 647.6,743.8 96.1,158.7 -125.4,764.6 -125.4,764.6 -229.7,568.2 509.9,188 831.5,175.5 321.8,-12.5 46,-443 12.6,-818.9 -33.4,-376.1 484.7,-1796.7 493,-1872 8.3,-75.1 171.3,-150.4 417.8,-292.5 246.5,-142 -100.2,-125.3 -764.5,-160.2 -664.5,-34.8 -1516.8,-416.4 -1872,-453.9 -355.1,-37.6 50.2,200.5 192.3,944.3 z m 3428.9,4743.7 c -78,367.7 -412.3,172.7 -674.1,456.8 -261.8,284.1 317.6,351 490.3,780 172.6,428.9 -39.1,852.3 233.9,1097.4 189.1,169.9 1068,350.3 1627.2,454.5 400,74.5 815.1,17.3 1175,-172.5 100,-52.8 188.1,-112 245.2,-176.1 228.5,-256.3 345.5,-624 50.2,-1197.8 -295.3,-573.8 -1459.7,-852.3 -1955.4,-1168.3 -495.9,-315.9 -1053.1,-514.1 -1231.2,-508.6 -178.3,5.6 117,66.9 38.9,434.6 z M 22173,16777.7 c 0,0 2000.4,799.5 2379.3,676.9 378.8,-122.5 150.4,-507 -590.6,-880.3 -741,-373.2 -495.8,-440 -657.4,-640.6 -161.5,-200.6 -534.8,-663 -896.9,-373.2 -362.1,289.6 -224.2,941.4 -234.4,1217.2 z m -1924.4,-844 c -259.1,426.2 -752.1,234 -768.8,320.4 -16.7,86.4 158.8,473.4 325.9,807.8 92.6,185.2 164.7,418.1 210.6,588.9 27,100.6 153.1,133.8 226.1,59.6 249.3,-253.5 712.9,-708.1 967.2,-852.3 359.3,-203.7 384.4,-281 509.8,-604 125.3,-323.1 217.2,-562.7 392.7,-1356.7 175.5,-793.8 -58.5,-651.7 -325.9,-935.9 -267.4,-284.1 -459.6,150.4 -509.8,601.7 -50,451.2 -342.5,526.5 -501.3,635.2 -158.8,108.5 -267.4,309.1 -526.5,735.3 z m -4809.2,367.7 c 0,0 1959.6,-288.3 2590.5,-221.5 630.9,66.9 526.5,-75.2 894.2,-271.5 367.7,-196.5 -213.1,-292.5 -823.2,-576.6 -610,-284.2 -927.6,-192.3 -1278.5,-71.1 -351,121.1 -509.7,-87.8 -689.4,-117 -179.7,-29.3 -150.4,-50.1 -254.9,242.3 -104.4,292.5 -158.8,271.7 -208.9,292.5 -50.1,20.9 -292.4,29.3 -376,317.6 -83.6,288.3 146.2,405.3 146.2,405.3 z m -1117.4,1009 c -133.8,112.3 -90.2,327.7 76.6,379.7 258.4,80.6 600.8,256.7 961.4,633.6 735.4,768.7 1454.1,1529.3 1805,1303.6 351,-225.6 -57.9,-860.8 330.4,-1052.9 388.3,-192.2 1357.7,-417.9 1792.2,-250.7 434.6,167.1 309.2,-844 0,-1228.4 -309.2,-384.4 376.1,-777.2 -768.8,-835.7 -1144.9,-58.5 -3442.9,367.7 -3468,417.8 -15,30.1 -413.4,368.1 -728.8,633 z m -2467.6,2582.2 c -127.4,-160.8 -215.2,-35.5 -332.2,-31.3 -117,4.1 -114.9,77.2 -138.8,167.2 -23.9,89.8 -82.6,169.2 -82.6,169.2 0,0 27.2,68.8 60,56.3 32.8,-12.5 245,-119.1 328.6,-117 83.5,2.1 131.6,2.1 194.3,-29.2 62.6,-31.4 98.1,-54.4 -29.3,-215.2 z m -86.7,-501.4 c -70.1,-45.2 -99.7,-76.3 -199.9,-136.7 -100.1,-60.4 -85.1,-103.6 -136.9,-3 -51.8,100.5 56.1,178.5 43.6,271.4 -4.7,35.1 -17.1,70.2 -30.6,100.3 -17.9,39.8 12.1,84.3 55.6,81.8 50.4,-2.8 106.9,-7.8 139.8,-16.6 69.2,-18.6 115.2,2.7 157.2,3 42,0.3 42.6,-2.5 161.3,-152.6 118.9,-149.9 -120.1,-102.3 -190.1,-147.6 z m 9575.7,1723.6 c -551.6,-37.7 -614.3,162.9 -1040.5,639.2 -426.1,476.4 952.7,1378.9 952.7,1491.7 0,0 551.5,651.9 777.2,539 225.6,-112.8 539,-501.4 539,-839.8 0,-338.5 388.5,-476.4 388.5,-877.4 0,-401.2 -1065.4,-915.1 -1616.9,-952.7 z m -603.4,-957.5 c 1.5,132.2 -24.8,348.1 -50.6,516 -20.7,134.1 80.4,255.8 215.9,260.1 124.5,4 282.5,4.2 450.2,-8.1 381.7,-27.9 738.2,320.4 1189.5,197.8 451.2,-122.5 119.7,-189.4 -100.3,-381.6 -220,-192.2 -390,-236.8 -1114.2,-721.5 -724.2,-484.6 -593.3,-103 -590.5,137.3 z M 20286.2,18261 c -4,108.3 71,246.8 150,361.7 73.9,107.5 236.9,93.9 292.8,-24 131.4,-277.4 332.1,-708.2 376.2,-843.3 66.8,-204.7 154.6,-597.5 -367.8,-288.1 -522.2,309.5 -442.8,568.1 -451.2,793.7 z m -154.6,-228.4 c -19.4,-105.9 -249.3,-190.8 -359.3,-115.6 -110.1,75.2 -19.6,207.5 18.1,303.6 37.6,96.2 179.7,41.8 186.6,41.8 0,0 174.1,-123.9 154.6,-229.8 z m -66.8,550.1 c -284.2,-267.4 -334.3,-142 -534.9,-66.8 -200.6,75.2 -367.6,434.6 142.1,635 509.8,200.6 844,643.6 923.9,677 0,0 204.2,-401.2 0,-643.5 -204.2,-242.4 -247.1,-334.3 -531.1,-601.7 z m -272.8,3803.8 c 200.6,-100.3 551.6,-714.4 651.9,-1378.9 100.2,-664.3 -213.1,-1002.7 -1629.5,-1855 -1416.5,-852.5 -927.6,238 -789.8,1103 137.9,864.9 -225.6,463.8 -864.9,902.5 -639.2,438.7 -614.2,752 -150.1,1403.9 288.1,404.6 1300.2,611.1 2080.5,733.6 390.9,61.4 727.7,-278.4 661.4,-668.5 -20.4,-120.2 -14.6,-213 40.5,-240.6 z m -2522.5,-1449 c 752.1,-601.6 -501.4,-952.5 -1880.2,-2306.2 -837.9,-822.7 -2333,-812.2 -3377.2,-677.4 -408.9,52.8 -594.3,534.4 -332.8,853.1 69.6,84.9 130.3,176.9 175.1,275.5 250.8,551.4 551.6,1278.4 877.4,1203.3 325.9,-75.3 1729.9,651.7 2381.7,1033.5 651.7,381.7 1403.9,220 2156,-381.8 z m -1151.9,912.6 c -66.8,-50.2 -172.6,-36.2 -311.9,0 -139.3,36.2 -27.9,211.7 77.9,298.1 105.9,86.3 337.2,222.9 359.5,250.6 0,0 264.5,80.8 323,0 58.5,-80.7 -30.6,-111.3 -142.1,-217.2 -111.3,-105.8 -111.3,-55.7 -222.8,-125.3 -111.4,-69.6 -16.6,-156 -83.6,-206.2 z m -5175,-1676.9 c 0,0 -17.2,139.3 108.8,184.5 125.9,45.2 169.3,-145.4 241.7,-256.9 72.5,-111.4 33.5,-351 67.7,-562.7 34.2,-211.7 60.5,-256.2 -162.4,-351.5 -222.8,-95.3 -479.1,34 -479.1,89.8 0,55.6 261.9,239.4 284.2,540.4 22.3,300.7 -60.9,356.4 -60.9,356.4 z m 966.1,-3495.8 c -192.1,209 -476.3,142 -676.9,367.7 -200.5,225.7 714.4,605.6 758.7,626.8 419.6,200.5 1146.7,-376.1 1564.5,-468 417.8,-92 584.9,-192.2 910.8,-760.5 326,-568.2 -434.5,-927.5 -1011,-1203.3 -576.7,-275.7 -877.6,83.6 -1086.5,568.3 -208.9,484.6 -267.4,660.1 -459.6,869 z m -981.9,197 c 75.3,-350.9 827.4,-125.3 990.3,-764.6 163,-639.2 777.1,-940 -526.4,-1241 -1303.7,-300.8 -1830.13,-50 -2055.78,325.9 -225.66,376.1 49.11,812.5 -1993.05,1049.9 -889.97,103.4 -300.8,842.9 -300.8,842.9 0,0 1027.82,752.1 2093.27,651.8 1065.46,-100.2 877.66,565.4 1905.36,9.3 433.9,-234.8 -188,-523.2 -112.9,-874.2 z m 4299.5,-4032.6 c -484.7,284 183.9,334.2 819,1387.1 635,1052.9 986,451.3 1888.6,585 902.5,133.7 1554.3,601.7 1771.5,686.7 0,0 451.3,-151.8 890.5,-449.6 439.3,-297.7 -389,-838.7 -1027.4,-1122.9 -638.4,-284.1 -1267,-785.5 -2587.3,-1437.3 -1320.4,-651.8 -1270.2,66.9 -1754.9,351 z m -419.5,-1460.3 c -50.2,-189.4 -2022.3,-362.2 -2412.3,-568.3 -389.9,-206 -880.3,-1225.5 -1164.3,-1019.5 -284.2,206.1 -139.3,462.5 -139.3,462.5 0,0 1520.9,1203.3 2323.1,1275.7 802.2,72.5 1442.9,39 1392.8,-150.4 z m -1489.2,396.1 c -275.1,-159.4 -1438.7,-767 -2077.9,-1099.5 -92,-47.9 -182.1,67.1 -113.5,145 319.5,362.3 823.5,899 1216.5,1155.1 623.9,406.8 768.7,490.2 852.3,495.9 83.6,5.6 646.2,-50.2 902.5,395.5 256.3,445.7 156,629.6 289.8,568.3 133.6,-61.3 -295.3,-317.6 38.9,-601.7 334.3,-284.2 473.6,-100.2 629.6,-445.7 155.9,-345.3 623.9,-791 -156,-724.2 -780,66.8 -1197.8,334.2 -1582.2,111.3 z m 18638.5,-231.1 c 50.2,-309.2 300.9,-409.5 0,-593.3 -300.8,-183.9 -1621.1,-158.8 -3150.4,-233.6 -1529.2,-74.9 -2013.9,-685.7 -2440.1,-852.8 -426.1,-167.1 -986.1,1019.5 -1103.1,1103 -117,83.6 -342.5,351 -217.2,827.4 125.3,476.3 2030.7,493.1 2366.2,585 335.5,91.9 483.4,534.7 1277.2,1261.8 793.9,727 1905.4,651.9 1980.5,651.9 0,0 392.9,133.6 1228.4,233.9 835.7,100.3 476.4,-401.1 259.1,-944.3 -217.2,-543.1 -250.6,-1729.8 -200.6,-2039 z m 5634.6,-1647.7 c -258.7,-266.8 -3424.7,143.9 -4680.5,318.8 -150.6,21 -186.1,233.3 -51.7,307.7 279.3,154.8 628.4,369.2 871.5,591.4 467.9,427.8 3065.6,398.7 3611.2,159.5 545.5,-239.2 573,-1043.9 249.5,-1377.4 z m -1182.3,1715 c -1137.9,123.1 -1531.6,200.1 -2131.1,60.3 -599.6,-139.8 -776.7,-747.5 -1416.8,-885.1 -640,-137.8 -380.5,1995 -373.1,2101 69.4,1006.1 1934.1,1763 2553.6,2453.6 619.7,690.6 987.4,899 2408,907.5 1420.5,8.5 1286.9,-1810.5 1191.8,-3193.4 -94.9,-1382.7 -1094.5,-1567 -2232.4,-1443.9 z m 553.3,7407.6 c -12.5,271.6 125.5,706.1 543.2,814.8 417.8,108.7 1558.5,112.8 1763.3,158.7 0,0 935.9,-300.8 848.1,-597.5 -87.6,-296.5 -831.4,-355 -1169.8,-635 -338.5,-280 -956.8,-1032 -1437.3,-1032 -480.5,0 -430.5,334.2 -497.3,676.9 -66.8,342.6 -37.6,342.6 -50.2,614.1 z m -1479.1,426.9 c 2172.7,523 1002.8,-422.7 1437.4,-1325.2 434.5,-902.5 -1203.3,-1437.3 -2841.3,-2373.2 -1637.8,-936 -2674.1,-635.1 -4713.1,-1014.5 -2039,-379.3 -1972.1,-2060.8 -3910.8,-2510 -1938.8,-449.3 -2105.9,1485.5 -1905.4,2918.8 200.6,1433.4 2975,2243.5 4111.5,2828.6 1136.5,585.2 2030.8,2011.9 2507,2791 734.7,1202.1 1905.2,902.5 1537.6,0 -367.7,-902.5 1604.5,-1838.4 3777.1,-1315.5 z m -8526.7,3215.6 c 1275.6,872.4 1607.5,-947.4 1231.5,-1423.8 -376.1,-476.3 -1429,-676.9 -2607.3,-1078 -1178.2,-401.1 -777.1,-701.9 -1128.2,-1454.1 -351,-752.1 -827.2,-1178.2 -2005.5,-1428.9 -1178.3,-250.6 -1203.4,927.6 -1429,1564.5 -225.6,636.7 551.5,942.4 1604.5,1443.8 1052.9,501.5 2557,526.6 3115,822.9 557.9,296.5 555.3,1099.7 1219,1553.6 z m -644.6,1416.1 c -10.6,101 84.1,181.1 182.1,154.3 309.4,-84.2 814.7,-227.8 875.1,-282.5 87.6,-79.3 66.8,-58.5 125.3,-112.7 58.5,-54.4 213.1,-171.4 288.2,-547.7 75.3,-376.3 -417.8,-125.1 -722.8,-233.8 -305,-108.6 -635.1,-509.6 -806.4,-359.2 -171.4,150.4 46,371.8 66.8,952.6 7.1,195.6 1.8,332.9 -8.3,429 z m -3125.4,-558.5 c 451.3,62.6 1002.8,-75.3 1679.7,345.9 363.6,226.3 412.5,514.7 389.7,838.2 -11.1,156 210.2,198.8 259.1,50.2 53.8,-163.7 104.1,-334.1 140.9,-494.7 137.9,-601.7 75.2,-451.3 0,-1140.7 -75.2,-689.4 -576.6,-564.1 -1140.7,-1103.1 -564.1,-539 -1316.2,-664.3 -1052.9,-100.4 263.2,564.1 -125.3,501.5 -275.8,927.6 -150.4,426.3 -451.2,614.3 0,677 z M 43885.2,3290.1 c 75.2,-1909.4 -1399.8,-1249.2 -1688,-1027.8 -288.4,221.5 1680.9,1208.8 1688,1027.8 z M 44085.7,939 c 197.4,-818.902 -607,-1387.199 -757.4,-108.699 -32.1,273.099 -48.2,496.599 -53.7,679.299 -11.5,383.6 532.2,475.1 646.5,108.8 50.4,-161.8 89.7,-368.9 164.6,-679.4 z m 1835,27812.9 v 378.1 c -1463.2,433.8 -2983,1044.3 -4008.2,1483.8 h -3126.2 c 17.3,-250.6 614.2,-517 381.6,-657.7 -317.6,-192.3 -1136.5,350.9 -1963.8,434.5 -495.6,49.9 -1452.8,-4.9 -2297.1,223.2 h -916.1 c 321.4,-205.1 717,-368.7 1199.1,-436 1853.1,-258.6 3275.2,330.4 3490.7,-775.7 215.5,-1106.1 617.7,-1982.3 -229.9,-2054.2 -847.5,-71.8 -1723.8,186.8 -2442,660.8 -718.2,474.1 -1809.9,948.1 -2542.6,991.2 -732.5,43.1 -2226.5,-28.8 -2341.4,933.6 -22.6,189.6 -25.2,427.7 -4.5,680.3 h -929.1 c 42.3,-229.5 69.1,-489.4 76.9,-762.3 27.9,-962.4 -635.1,-330 -802.2,-692.1 -167.1,-362.1 72.5,-1075.3 61.4,-1643.5 -11.3,-568.3 -1454.1,-573.8 -1743.9,-395.5 -289.6,178.2 868.8,858 1097.6,1715.8 213,798.8 -199.4,35.2 -20.1,823.5 20.2,89.1 34.5,179.6 43.3,270.6 32.7,339.4 81,545.5 121.9,683.5 H 28735 c 194.5,-443.9 99.7,-874.6 -455.7,-735.8 -601.7,150.5 -635.1,195 -1158.8,161.6 -523.7,-33.5 -507,-16.7 -935.9,83.5 -429,100.3 -339.8,-16.6 -729.8,156 -254.5,112.7 -352.4,232.6 -368,334.7 h -902.2 c 220.5,0 416.4,-25.4 526.4,-97.9 367.7,-242.3 894.2,-793.8 1771.6,-760.4 877.4,33.4 1571,-317.6 1738.2,-446.9 167.1,-129.2 543.2,-639.5 -325.9,-1500.2 -869.1,-860.8 -1571,158.7 -2214.5,58.5 -643.4,-100.4 -1136.5,-150.4 -1470.8,-41.9 -334.2,108.7 -108.7,426.3 -534.8,1145 -207.7,350.1 -369.7,716.1 -481.2,999.4 -104.2,264.5 67.7,556.2 349.4,594.3 201.2,27.2 432.5,50.1 641.6,50.1 h -1773 c 78.2,-125.7 159.9,-256.7 245.3,-393.2 2122.5,-3392.7 501.3,-1203.3 1805,-3743.8 1303.6,-2540.3 -1537.7,-3125.3 -1470.8,-2189.4 66.9,936 -702,718.7 -1470.7,2156 -768.9,1437.4 66.8,735.5 267.4,2189.3 154.1,1117 -461.6,1504.4 -1171.9,1981.1 h -990.5 c 215.1,-190.7 495.8,-365.3 1216.5,-1100.7 1228.5,-1253.5 376,-1805 -977.7,-2331.5 -1353.8,-526.5 -1278.5,626.8 -2431.8,1244.9 -1153.1,618.1 -2356.5,785.8 -4913.7,1738.4 -451.9,168.4 -1030.1,317.4 -1676.5,448.9 H 8956.63 c 412.87,-93 832.06,-200.2 1255.67,-323.5 5515.4,-1604.5 7955.6,-2172.7 4947.1,-3309.3 -3008.3,-1136.5 -3476.3,-935.9 -5715.82,434.6 -2239.57,1370.4 -4512.54,1336.6 -5047.44,1286.7 -240.42,-22.4 -1898.8,-61.7 -3321.2,108 -386.831,46.3 -756.323,108 -1074.94,189.7 v -527.6 c 279.461,-83.4 637.816,-175.3 1074.94,-259.1 287.44,-55 608.98,-106.6 964.64,-149.8 1855.19,-225.6 2732.62,1027.9 3885.87,-526.5 1153.25,-1554.3 526.45,-3208.9 2030.67,-4036.1 1504.11,-827.4 3183.78,-4136.5 902.51,-2858.1 -2281.42,1278.6 -2406.73,777.2 -3259.07,2632.4 -852.45,1855.2 -2256.32,2961.6 -3885.86,3223.1 -195.06,31.3 -411.92,74.3 -638.76,127.3 -349.557,81.7 -722.565,187.1 -1074.94,310.1 v -435.2 c 399.266,-174.6 803.105,-405.5 1036.85,-522.2 12.78,-6.3 25.43,-12.5 38.09,-18.5 587.3,-280.4 1142.24,-242.8 2393.61,-733.6 1278.56,-501.4 927.59,-702 902.51,-1654.6 -24.97,-952.6 -1403.88,-100.3 -3108.56,401.1 -64.47,19 -126.95,35.7 -187.56,50.3 -453.182,109.9 -800.518,105.4 -1074.94,60.8 v -648.2 c 26.8438,0.3 54.2773,-1 82.1758,-3.8 166.8082,-17.1 350.8512,-42.3 553.5312,-77.5 147.231,-25.5 293.883,-46.6 439.233,-64.2 1471.76,-179.3 2814.91,-12.7 3358.83,-621 597.49,-668.6 1032.04,-317.6 1566.82,-885.8 534.89,-568.3 1754.96,-906 1938.77,-1430.7 183.81,-524.7 417.79,-340.9 -1520.87,-73.5 -1938.77,267.4 -2289.74,802.3 -2807.87,1086.4 -378.86,207.7 -1633.75,31.1 -2535.68,91.2 -331.385,22.1 -615.069,76.1 -790.202,192.9 C 196,21708.8 99.875,21781.8 0,21864.1 v -504.4 c 473,-35.8 824.789,83.2 882.23,-211.5 62.715,-321.7 179.71,-576.6 -66.816,-597.5 -246.523,-20.9 -501.371,54.3 -710.383,192.2 C 72.4453,20764.5 37.043,20786 0,20807.1 V 20407 c 196,-105.6 384.965,-192.5 502.074,-209.3 117.336,-16.9 325.528,52.1 572.866,151.5 457.07,183.7 1048.22,471.5 1449.36,514.8 618.36,67 718.71,-334.2 1036.27,-846.7 317.56,-512.4 -50.18,-757.7 -1086.44,-991.7 -682.95,-154.3 -973.9,-76.1 -1399.19,23.8 -219.909,51.7 -475.807,109.1 -840.377,143.4 -88.032,8.2 -165.7505,8.8 -234.563,3.1 v -319.4 c 12.0742,-8.3 23.4453,-19.2 33.9961,-32.9 C 201.859,18625.1 510.395,18591.1 301.504,18215 223.547,18074.8 109.602,17959 0,17835.1 v -3020.3 c 9.49609,10.4 18.9922,20.9 28.4844,31.4 161.0666,178.4 189.9026,412.1 172.2036,616.4 -19.926,230 193.421,410.7 418.136,357.4 153.567,-36.6 316.977,-81.2 456.116,-132.3 132.59,-48.7 243.13,-103.2 301.74,-161.8 233.98,-234 -328.69,-489.2 367.73,-689.6 696.32,-200.6 896.89,-12.4 1075.18,-68 178.3,-55.7 256.26,-195 144.77,-947.1 -111.36,-752.1 -501.36,27.8 -735.34,-161.5 -194.24,-157.2 -553.42,-245.5 -1154.08,-70.2 -123.081,35.8 -256.245,82.8 -400.198,142.5 -342.058,141.7 -541.34,189.1 -674.742,204.6 v -528.4 c 132.348,47.1 270.789,63.2 412.863,7.4 467.961,-183.9 618.357,-195 546.032,-579.4 -72.446,-384.4 89.095,-697.3 -679.668,-994.9 C 186.855,11805.5 93.4258,11765.4 0,11723.8 v -461.4 c 208.074,84.1 323.773,136.5 323.773,136.5 36.454,10.4 288.375,490.7 751.167,509.6 30.95,1.3 62.84,0.4 95.66,-2.7 523.64,-50.1 1197.68,334.3 1431.66,133.7 233.98,-200.5 222.61,-339.8 256.14,-607.2 33.64,-267.4 -150.29,-518.1 -200.34,-624 -50.17,-105.8 178.18,-311.9 -568.31,-256.2 -499.37,37.2 -736.98,116.8 -1014.81,85.4 -137.381,-15.6 -284.616,-58.2 -478.268,-146.7 C 413.215,10406.9 204.203,10313.3 0,10235.3 v -232.8 c 321.43,113.1 700.297,168.7 1074.94,206 464.68,46.2 923.14,64.1 1257.7,128.9 919.75,178.2 1888.02,-153.1 3567.72,-804.8 1679.71,-651.8 4036.26,551.5 4713.14,576.6 676.8,25.1 200.6,-877.4 -753.66,-2231.3 -954.08,-1353.7 553.06,-250.7 979.26,-777.2 426.1,-526.4 275.7,-827.2 -1905.33,-2055.6 C 6752.7,3816.7 6301.5,4869.6 3944.94,5020 1666.93,5165.4 2082.96,3600.7 1074.94,3224.5 1040.25,3211.5 1003.79,3200 965.457,3189.9 561.738,3084.3 240.195,3130.1 0,3326.5 v -609 c 271.727,-36.6 703.461,-95.8 1074.94,-126.7 351.09,-29.2 648.26,-33.3 705.58,30.8 142.08,158.9 -41.73,835.7 844.01,1320.4 885.86,484.8 1888.6,559.9 3275.83,50.2 1387.24,-509.8 1788.26,208.9 2272.98,-702.1 484.72,-910.8 -16.65,-961 777.2,-2172.6 C 9255.32,652.199 9369.14,272 9326.12,0 h 306.31 c -115.7,497.598 -421.77,993.801 -431.27,1038.1 0,0 -359.29,417.8 -91.9,760.5 267.39,342.5 643.44,-735.5 823.15,-1138.901 C 10006.3,494 10071,264.5 10124.9,0 h 323.3 c -183,562.199 -419.2,1086.6 -685.18,1439.4 -515.91,684.8 -1710.3,1960.5 -940.49,2791.1 769.92,830.5 3043.77,2146.4 3183.07,194.3 0,0 -1061.5,-1783.4 110.5,-3628.698 C 12299.6,507.199 12493.6,243.398 12687.2,0 h 1075.4 c -259.2,547.402 70.3,639.699 124.1,820.801 67,225.699 763.3,451.299 937.4,701.999 174,250.7 241,463.8 857,915 398.5,292.1 1266.5,486.2 1829.1,586.8 255.6,45.7 505.4,116.4 750.9,200.7 561.1,192.6 905.2,-442 727.3,-775 C 18814.8,2125.3 18571.1,760.898 18612,0 h 836.8 c -437.6,350.898 -393.2,1220.9 -393.2,1220.9 0,0 869.5,2646.2 2891.4,3825.1 2021.8,1178.8 840.2,2123 3375.4,2443.2 1070.5,135.2 332.1,-1169.5 912.8,-1697.7 580.8,-528.1 1630.4,831 2734.4,-98 1104,-928.9 2579.1,-681.5 644.7,-2876.7 C 27679.9,621.5 26424.7,396.602 25544.6,777.801 24664.4,1158.9 24597,2284.5 20664.3,105.398 20591.2,65 20521.5,29.9023 20454.9,0 H 22148 c -15.1,31 -29.9,63.5 -44.2,98 -267.4,643.602 1036.1,292.5 1738.2,442.898 701.9,150.403 1261.8,-158.699 2114.1,-275.699 661.8,-90.898 1615.7,468.102 2044.4,781.301 144,105 338.5,107.2 484.7,5.5 324.2,-225.398 898.9,-631 1454.4,-1052 h 281.9 c -3.6,28.3008 17.2,57.8984 50.8,58.3008 229,2.3984 666.2,2.5976 761.9,-29.9024 26.2,-8.8984 47.2,-18.3007 64,-28.3984 h 1893.5 c -79.4,32.4023 -152.2,64.6992 -216.6,96 C 32123.3,413.5 30730.6,-65.5977 30362.8,346.602 30059,687.301 31033.3,1203 31395,1395.3 c 74.5,39.7 166.8,22.3 221.3,-42.1 89.1,-105 238.4,-264.5 429,-404.802 317.6,-233.996 2044.6,-468 2813.4,-61.398 768.8,406.7 428.9,378.9 417.8,596.1 -11.1,217.4 278.5,222.9 334.3,150.4 55.7,-72.3 451.2,-746.5 651.8,-896.898 C 36419.6,619 36259.3,310.301 35891.4,0 h 96.5 c 10.5,14.8008 20.3,29 29.6,42.4023 200.6,292.4997 334.2,375.9957 676.8,367.6957 C 36857.8,406.199 36890,225.199 36895.4,0 h 268.5 c 31.1,172.699 199.9,300.898 387.6,265.098 C 38044.5,171 38872.1,34 39658.3,0 h 664.2 c 761.8,39.5 1360.1,237.199 1369.1,758.098 1.8,105.504 10.2,206.203 24.4,302.302 136.1,926.1 1524.6,756.1 1440.2,-176.099 C 43131,605.5 43087.7,308 43018.9,0 h 1101.2 c 26.4,182.5 203,316 395.1,275.801 383.3,-80 930.3,-186.6018 1405.5,-249.9026 V 335.699 C 45174.3,375.098 44269,503.301 44180.6,1244 c -114.8,962.4 287.3,3174.5 1637.7,2183.4 0,0 31.1,-91.2 102.4,-234.4 v 682.3 c -1.2,-1 -2.3,-2 -3.5,-2.9 -239.5,-183.9 -877.4,228.3 -1027.8,412.3 -134.1,163.8 801.2,604.6 1031.3,723.7 V 5315 C 45185.6,4868.1 44378.4,4243.5 43242,3503.4 41958.2,2667.2 41581.9,1919 41498.2,1424.3 41427.9,1008 41114.4,674.402 40700.8,589.801 39609.6,366.5 37682.1,176.5 36268.8,1161.8 c -2080.7,1450.8 -826.9,2089.5 660.3,2896.2 1487.4,806.7 979.3,487.3 3954.4,4239 2975.1,3751.8 3466.6,3555.1 4506.9,2235.7 131.9,-167.1 313.3,-331.8 530.3,-492.4 v 850.4 c -363.6,325.3 -832.1,690.8 -1450.3,920 -890.5,330.1 -998.2,348.6 -1304.9,136.1 -247.5,-171.3 -393.1,-450.7 -406.1,-751.4 -6.2,-141.4 -79.5,-343.1 -287,-630.2 -614.6,-850.5 -1536.3,-191.9 -1066.6,180.8 469.7,372.6 -355.5,1378.6 -1503.5,3163.2 -1148,1784.7 686.2,1117 2118.2,1613.8 1431.9,496.7 1631.2,332.2 3303.2,-355.4 253,-103.9 447.2,-213.7 597,-325.6 v 261.4 c -127.2,87.6 -268.9,168.7 -428.1,240.2 -974.8,437.9 -1572.9,1137.3 -1696.5,1347.7 -123.6,210.3 -301.5,888.8 1042.9,1229.3 464.6,117.7 804.7,35.9 1081.7,-131.9 v 1001.4 c -14.6,24.2 -28.7,48.3 -42.4,72.6 -33.1,58.7 -16,121.5 42.4,187.2 v 1153.7 c -504.5,192.1 -1047.7,515.3 -1780.6,963.8 -2239.6,1370.5 -4512.6,1336.6 -5047.4,1286.7 -492.2,-46 -6927.3,-162.9 -5113.6,1589.5 330.1,319.1 752,526.4 1204.9,601.6 1390.9,231.1 5311.8,680.6 9724.8,-603.1 349.9,-101.7 687.4,-199.4 1011.9,-293.2 v 1222.2 c -890.2,533.6 -1572.4,1088 -1663.6,1485.9 -67.8,295.7 -90.2,606 -85.4,905.7 14.9,921.4 869,1581.4 1749,1389.2"
         style="fill:#a6e2f4;fill-opacity:1;fill-rule:nonzero;stroke:none"
         id="path16" />
    </g>
  </g>
</svg>
